<svg width="120" height="35" viewBox="0 0 120 35" fill="none" xmlns="http://www.w3.org/2000/svg">
  <g opacity="0.6">
    <path d="M53.5538 20.9835V16.9361C53.5538 15.4089 52.5715 14.3809 50.9904 14.3674C50.5401 14.3386 50.0902 14.43 49.6877 14.6321C49.2852 14.8343 48.9447 15.1398 48.7018 15.5169C48.4804 15.151 48.1636 14.8512 47.7848 14.6489C47.406 14.4466 46.9791 14.3493 46.5493 14.3674C46.1749 14.3495 45.8023 14.4287 45.4683 14.5971C45.1342 14.7656 44.8502 15.0175 44.6444 15.328V14.5185H43.2266V20.9835H44.658V17.4029C44.658 16.2805 45.2839 15.6869 46.2526 15.6869C47.2214 15.6869 47.6704 16.294 47.6704 17.3894V20.9835H49.0937V17.4029C49.0937 16.2805 49.7468 15.6869 50.6883 15.6869C51.6299 15.6869 52.1197 16.294 52.1197 17.3894V20.9835H53.5538ZM74.7336 14.5239H72.4178V12.565H70.9864V14.5239H69.6639V15.8083H70.9864V18.752C70.9864 20.2523 71.5715 21.1454 73.2478 21.1454C73.8739 21.1474 74.4879 20.9744 75.0193 20.6462L74.6111 19.4428C74.2308 19.6674 73.7991 19.7928 73.3566 19.8071C72.6491 19.8071 72.4151 19.3753 72.4151 18.7278V15.8083H74.7309L74.7336 14.5239ZM86.8243 14.362C86.4786 14.352 86.1366 14.4347 85.8344 14.6014C85.5321 14.7681 85.2809 15.0126 85.1072 15.3091V14.5239H83.703V20.9835H85.1208V17.3625C85.1208 16.2832 85.5834 15.7003 86.5113 15.7003C86.8149 15.696 87.1164 15.751 87.3985 15.8622L87.8339 14.5374C87.5098 14.4225 87.1684 14.3632 86.8243 14.362ZM68.5454 15.0366C67.7427 14.5637 66.8198 14.3296 65.8867 14.362C64.2376 14.362 63.1654 15.1472 63.1654 16.4289C63.1654 17.4839 63.9546 18.1315 65.4132 18.3338L66.0799 18.4283C66.8555 18.5362 67.2256 18.7386 67.2256 19.1028C67.2256 19.602 66.7085 19.888 65.7398 19.888C64.9582 19.9126 64.1911 19.6749 63.5627 19.2134L62.9178 20.3062C63.7434 20.8786 64.7327 21.1728 65.7398 21.1454C67.6202 21.1454 68.7114 20.2658 68.7114 19.0381C68.7114 17.9021 67.8515 17.3085 66.4364 17.1061L65.7697 17.0117C65.1574 16.9307 64.6649 16.8093 64.6649 16.3776C64.6649 15.9054 65.1275 15.6221 65.9058 15.6221C66.6188 15.6326 67.3175 15.8229 67.9358 16.1752L68.5454 15.0366ZM106.513 14.362C106.167 14.352 105.825 14.4347 105.523 14.6014C105.221 14.7681 104.969 15.0126 104.796 15.3091V14.5239H103.391V20.9835H104.809V17.3625C104.809 16.2832 105.272 15.7003 106.2 15.7003C106.503 15.696 106.805 15.751 107.087 15.8622L107.522 14.5374C107.198 14.4225 106.857 14.3632 106.513 14.362ZM88.2557 17.7537C88.2557 19.7126 89.6326 21.1454 91.7308 21.1454C92.5815 21.1871 93.4173 20.9119 94.0738 20.3737L93.3935 19.2377C92.9034 19.6078 92.3059 19.8113 91.6899 19.8179C90.5579 19.8179 89.7279 18.9922 89.7279 17.751C89.7279 16.5098 90.5606 15.6977 91.6899 15.6842C92.3059 15.6908 92.9034 15.8942 93.3935 16.2643L94.0738 15.1283C93.4173 14.5902 92.5815 14.3149 91.7308 14.3566C89.6326 14.3566 88.2557 15.7894 88.2557 17.7483V17.7537ZM101.53 17.7537V14.5158H100.112V15.301C99.8706 14.9917 99.5577 14.7444 99.1998 14.5796C98.8418 14.4148 98.4493 14.3374 98.055 14.3539C96.229 14.3539 94.7895 15.7732 94.7895 17.7456C94.7895 19.718 96.2209 21.1373 98.055 21.1373C98.4493 21.1538 98.8418 21.0764 99.1998 20.9116C99.5577 20.7469 99.8706 20.4995 100.112 20.1902V20.9727H101.53V17.7537ZM96.2563 17.7537C96.2563 16.6177 97.0046 15.6869 98.2319 15.6869C99.4048 15.6869 100.194 16.58 100.194 17.7537C100.194 18.9274 99.4048 19.8205 98.2319 19.8205C97.0046 19.8205 96.2563 18.887 96.2563 17.7537ZM79.1503 14.362C77.2454 14.362 75.9065 15.7408 75.9065 17.7537C75.9065 19.8071 77.2971 21.1454 79.2455 21.1454C80.2184 21.1792 81.1697 20.8564 81.9178 20.2388L81.2239 19.1973C80.6826 19.6266 80.0121 19.8641 79.319 19.8718C78.4046 19.8718 77.5746 19.4536 77.3705 18.2907H82.209C82.2226 18.1153 82.2362 17.9399 82.2362 17.751C82.2362 15.7381 80.9681 14.3593 79.1421 14.3593L79.1503 14.362ZM79.123 15.6194C80.0374 15.6194 80.6225 16.186 80.7721 17.1871H77.395C77.5447 16.2535 78.1162 15.6194 79.1258 15.6194H79.123ZM114.677 17.7537V11.9282H113.259V15.3064C113.017 14.9971 112.704 14.7497 112.346 14.585C111.988 14.4202 111.596 14.3428 111.202 14.3593C109.376 14.3593 107.936 15.7786 107.936 17.751C107.936 19.7234 109.367 21.1427 111.202 21.1427C111.596 21.1592 111.988 21.0818 112.346 20.917C112.704 20.7523 113.017 20.5049 113.259 20.1956V20.9781H114.677V17.7537ZM116.334 20.3872C116.39 20.387 116.446 20.398 116.497 20.4196C116.547 20.4406 116.592 20.4708 116.631 20.5086C116.669 20.5457 116.699 20.5896 116.72 20.6381C116.742 20.6884 116.753 20.7426 116.753 20.7973C116.753 20.8521 116.742 20.9062 116.72 20.9565C116.699 21.0049 116.668 21.0489 116.631 21.086C116.592 21.1236 116.547 21.1538 116.497 21.1751C116.446 21.1969 116.39 21.2079 116.334 21.2074C116.251 21.2085 116.17 21.1852 116.1 21.1406C116.03 21.0959 115.975 21.0319 115.942 20.9565C115.92 20.9062 115.909 20.852 115.909 20.7973C115.909 20.7426 115.92 20.6884 115.942 20.6381C115.985 20.539 116.065 20.4605 116.165 20.4196C116.22 20.3968 116.28 20.3858 116.339 20.3872H116.334ZM116.334 21.1157C116.377 21.1164 116.42 21.1081 116.459 21.0914C116.497 21.0753 116.531 21.0524 116.56 21.024C116.62 20.9638 116.654 20.8823 116.654 20.7973C116.654 20.7123 116.62 20.6308 116.56 20.5707C116.531 20.542 116.497 20.5191 116.459 20.5032C116.419 20.4867 116.377 20.4784 116.334 20.4789C116.29 20.4783 116.247 20.4866 116.206 20.5032C116.157 20.5237 116.115 20.5557 116.082 20.5964C116.048 20.637 116.026 20.6851 116.015 20.7365C116.005 20.7878 116.008 20.8408 116.023 20.8909C116.038 20.941 116.066 20.9867 116.103 21.024C116.132 21.0528 116.167 21.0757 116.206 21.0914C116.248 21.1088 116.294 21.1171 116.339 21.1157H116.334ZM116.358 20.603C116.399 20.6002 116.44 20.6117 116.473 20.6354C116.486 20.646 116.497 20.6596 116.504 20.6751C116.511 20.6906 116.514 20.7075 116.514 20.7245C116.514 20.7391 116.511 20.7536 116.506 20.7671C116.5 20.7806 116.492 20.7927 116.481 20.8027C116.456 20.8247 116.424 20.838 116.391 20.8405L116.516 20.9835H116.418L116.301 20.8405H116.263V20.9835H116.182V20.6057L116.358 20.603ZM116.263 20.6732V20.7757H116.358C116.375 20.7806 116.393 20.7806 116.41 20.7757C116.416 20.7716 116.421 20.7659 116.425 20.7593C116.428 20.7527 116.43 20.7453 116.429 20.7379C116.43 20.7306 116.428 20.7232 116.425 20.7166C116.421 20.71 116.416 20.7043 116.41 20.7002C116.393 20.6953 116.375 20.6953 116.358 20.7002L116.263 20.6732ZM109.408 17.7537C109.408 16.6177 110.157 15.6869 111.384 15.6869C112.557 15.6869 113.346 16.58 113.346 17.7537C113.346 18.9274 112.557 19.8205 111.384 19.8205C110.157 19.8205 109.408 18.887 109.408 17.7537ZM61.5408 17.7537V14.5158H60.123V15.301C59.8813 14.9944 59.5693 14.7492 59.2129 14.5859C58.8566 14.4226 58.4661 14.3459 58.0739 14.362C56.2479 14.362 54.8084 15.7813 54.8084 17.7537C54.8084 19.7261 56.2398 21.1454 58.0739 21.1454C58.4682 21.1619 58.8607 21.0845 59.2186 20.9197C59.5765 20.755 59.8895 20.5076 60.1312 20.1983V20.9808H61.549L61.5408 17.7537ZM56.267 17.7537C56.267 16.6177 57.0153 15.6869 58.2426 15.6869C59.4155 15.6869 60.2047 16.58 60.2047 17.7537C60.2047 18.9274 59.4155 19.8205 58.2426 19.8205C57.0153 19.8205 56.267 18.8897 56.267 17.7537Z" fill="#E0E0E0"/>
    <path d="M25.1355 10.0747H16.5635V25.3494H25.1355V10.0747Z" fill="#DCDCDC"/>
    <path d="M17.1083 17.7167C17.1071 16.2459 17.4434 14.7941 18.0916 13.4711C18.7399 12.1482 19.6832 10.9888 20.85 10.0807C19.4048 8.95451 17.6692 8.2542 15.8415 8.05981C14.0139 7.86542 12.1679 8.18478 10.5146 8.98141C8.86138 9.77803 7.4675 11.0198 6.49232 12.5647C5.51714 14.1097 5 15.8955 5 17.718C5 19.5406 5.51714 21.3264 6.49232 22.8714C7.4675 24.4163 8.86138 25.658 10.5146 26.4547C12.1679 27.2513 14.0139 27.5707 15.8415 27.3763C17.6692 27.1819 19.4048 26.4816 20.85 25.3554C19.6828 24.447 18.7393 23.2872 18.091 21.9637C17.4428 20.6403 17.1067 19.188 17.1083 17.7167Z" fill="#C6C6C6"/>
    <path d="M36.7011 17.7161C36.7011 19.5388 36.1838 21.3247 35.2084 22.8697C34.2331 24.4147 32.839 25.6564 31.1855 26.453C29.5321 27.2495 27.6859 27.5686 25.8582 27.374C24.0304 27.1793 22.2947 26.4786 20.8496 25.3521C22.016 24.4432 22.959 23.2835 23.6075 21.9605C24.2559 20.6375 24.5928 19.1857 24.5928 17.7148C24.5928 16.2438 24.2559 14.7921 23.6075 13.4691C22.959 12.146 22.016 10.9863 20.8496 10.0774C22.2949 8.95074 24.0308 8.25006 25.8588 8.05549C27.6869 7.86092 29.5332 8.18032 31.1868 8.97716C32.8403 9.774 34.2344 11.0161 35.2095 12.5615C36.1847 14.1069 36.7016 15.8932 36.7011 17.7161Z" fill="#E0E0E0"/>
    <path d="M35.7598 23.7303V23.4173H35.8877V23.3552H35.5693V23.42H35.6972V23.733L35.7598 23.7303ZM36.3884 23.7303V23.3525H36.3041L36.1898 23.6224L36.0755 23.3525H35.9748V23.7303H36.032V23.447L36.1381 23.6925H36.2116L36.3177 23.447V23.733L36.3884 23.7303Z" fill="#F79E1B"/>
  </g>
</svg>
