<svg width="120" height="35" viewBox="0 0 120 35" fill="none" xmlns="http://www.w3.org/2000/svg">
  <g opacity="0.6">
    <path fill-rule="evenodd" clip-rule="evenodd" d="M48.2782 10V10.0065C48.2716 10.0065 46.2085 10 45.6583 11.9501C45.154 13.7382 43.7328 18.675 43.6935 18.811H43.3005C43.3005 18.811 41.8465 13.7641 41.3356 11.9436C40.7854 9.99352 38.7157 10 38.7157 10H34V24.8362H38.7157V16.0252H38.9122H39.1087L41.8596 24.8362H45.1344L47.8852 16.0317H48.2782V24.8362H52.9939V10H48.2782Z" fill="#E0E0E0"/>
    <path fill-rule="evenodd" clip-rule="evenodd" d="M65.5028 10C65.5028 10 64.1209 10.1231 63.4725 11.5549L60.1322 18.811H59.7392V10H55.0234V24.8362H59.4772C59.4772 24.8362 60.9247 24.7067 61.5731 23.2813L64.8479 16.0252H65.2409V24.8362H69.9566V10H65.5028Z" fill="#E0E0E0"/>
    <path fill-rule="evenodd" clip-rule="evenodd" d="M72.0527 16.7378V24.8362H76.7685V20.1067H81.8772C84.1041 20.1067 85.9904 18.7008 86.6912 16.7378H72.0527Z" fill="#E0E0E0"/>
    <path fill-rule="evenodd" clip-rule="evenodd" d="M81.8776 10H71.3916C71.9156 12.8247 74.0573 15.0923 76.8278 15.8308C77.4566 15.9993 78.1181 16.09 78.7992 16.09H86.8815C86.9535 15.7531 86.9863 15.4097 86.9863 15.0534C86.9863 12.2611 84.7005 10 81.8776 10Z" fill="#E0E0E0"/>
  </g>
</svg>
