<svg width="120" height="35" viewBox="0 0 120 35" fill="none" xmlns="http://www.w3.org/2000/svg">
  <g opacity="0.6">
    <path fill-rule="evenodd" clip-rule="evenodd" d="M45.5275 16.8435C45.9072 16.8435 46.2798 16.7445 46.6022 16.5464C47.2398 16.1644 47.5909 15.4995 47.5909 14.7639C47.5909 14.007 47.2183 13.3138 46.5449 12.9389C46.2368 12.7621 45.8857 12.6701 45.5275 12.6701C45.1621 12.6701 44.8111 12.7621 44.4958 12.946C43.8367 13.328 43.4713 14.0141 43.4713 14.7639C43.4713 15.4925 43.8152 16.1574 44.4457 16.5393C44.7681 16.7445 45.1406 16.8435 45.5275 16.8435ZM36.2279 13.9646V10.6117H38.0549C38.5206 10.6117 38.9218 10.7815 39.2514 11.1069V11.114C39.5953 11.4323 39.7529 11.8213 39.7529 12.2811C39.7529 12.7479 39.5809 13.137 39.2514 13.4694C38.9218 13.7948 38.5206 13.9646 38.0549 13.9646H37.7253H36.2279ZM36.2279 15.641H37.7253H38.0549C38.5063 15.641 38.9505 15.549 39.3732 15.3722C39.7744 15.1954 40.1398 14.9619 40.455 14.6507C40.7631 14.3465 41.0067 13.9858 41.1786 13.5897C41.3649 13.1723 41.4509 12.7338 41.4509 12.2811C41.4509 11.8355 41.3649 11.3969 41.1786 10.9866C41.0067 10.5905 40.7631 10.2298 40.455 9.9256C40.1398 9.62144 39.7744 9.38094 39.3732 9.2041C38.9505 9.02727 38.5063 8.94238 38.0549 8.94238H34.5371V18.2228H36.2279V15.641ZM47.6984 17.4306C47.1109 18.046 46.2726 18.3785 45.3985 18.3785C43.3567 18.3785 41.8664 16.7515 41.8664 14.7639C41.8664 12.7833 43.3495 11.1352 45.3985 11.1352C46.2726 11.1352 47.1109 11.4747 47.6984 12.0972V11.213H49.2961V18.2936H47.6984V17.4306ZM56.0952 17.3174C55.5865 17.9257 54.7913 18.2158 53.9888 18.2158C51.8968 18.2158 50.8508 16.7869 50.8508 14.8205V11.2201H52.4628V14.7356C52.4628 15.9098 52.9428 16.6808 54.1966 16.6808C55.5435 16.6808 56.1095 15.7188 56.1095 14.4739V11.2201H57.7001V17.3104C57.7001 19.4324 56.3674 20.8966 54.1823 20.8966C53.0431 20.8966 51.9613 20.5359 51.0872 19.8144L50.994 19.7436L51.9254 18.7604L52.0042 18.8029C52.692 19.2131 53.3655 19.4324 54.1823 19.4324C55.3787 19.4324 56.0952 18.7958 56.0952 17.6004V17.3174Z" fill="#CCCED7"/>
    <path fill-rule="evenodd" clip-rule="evenodd" d="M83.4286 13.1294L83.4788 13.0304C83.486 13.0233 83.486 13.0092 83.4931 13.0021V12.995L83.5433 12.903H83.5504L83.5648 12.8748L83.5791 12.8606L83.5934 12.8252H83.6006C83.6149 12.7969 83.6293 12.7757 83.6436 12.7545L83.6508 12.7404C83.6579 12.7333 83.6651 12.7191 83.6722 12.705L83.6794 12.6979L83.7081 12.6625V12.6555C83.7367 12.613 83.7654 12.5777 83.794 12.5423V12.5352C83.8084 12.5211 83.8155 12.514 83.8227 12.4999H83.8299C84.5033 11.6298 85.5422 11.1205 86.6527 11.1205H86.8031C88.8092 11.163 90.2565 12.7757 90.2565 14.7351C90.2565 16.7227 88.7734 18.3638 86.7243 18.3638C85.9362 18.3638 85.1625 18.0313 84.6466 17.4442V20.7829H83.0489V14.5795H83.0561C83.0704 14.1409 83.1707 13.7094 83.3498 13.2992L83.357 13.285L83.3642 13.2567L83.3785 13.2355L83.3928 13.2001L83.4072 13.1648L83.4286 13.1294ZM59.3057 8.92773H61.0037V18.2082H59.3057V8.92773ZM63.3178 13.5821L67.2368 18.2365H65.0015L61.2258 13.5821L65.0015 8.92773H67.2368L63.3178 13.5821ZM68.6769 15.2019C68.7342 16.3125 69.6369 16.8854 70.7259 16.8854C71.4854 16.8854 72.2448 16.6803 72.9039 16.2983L72.9756 16.2559L73.8712 17.1967L73.7709 17.2745C72.8896 17.9394 71.8508 18.3497 70.7259 18.3497C68.5766 18.3497 67.0219 16.8642 67.0219 14.7351C67.0219 12.6555 68.5121 11.1064 70.64 11.1064C72.0872 11.1064 73.2478 11.7925 73.821 13.1011C74.0646 13.667 74.1362 14.537 73.95 15.1241L73.9213 15.2019H68.6769ZM76.5794 15.2019C76.6367 16.3125 77.5394 16.8854 78.6284 16.8854C79.395 16.8854 80.1545 16.6803 80.8064 16.2983L80.8852 16.2559L81.7736 17.1967L81.6805 17.2745C80.7921 17.9394 79.7532 18.3497 78.6284 18.3497C76.4791 18.3497 74.9315 16.8642 74.9315 14.7351C74.9315 12.6555 76.4146 11.1064 78.5496 11.1064C79.9897 11.1064 81.1503 11.7925 81.7235 13.1011C81.9743 13.667 82.0387 14.537 81.8525 15.1241L81.831 15.2019H76.5794ZM92.8572 15.2019C92.9145 16.3125 93.8172 16.8854 94.9062 16.8854C95.6657 16.8854 96.4323 16.6803 97.0843 16.2983L97.1631 16.2488L98.0515 17.1967L97.9512 17.2745C97.0699 17.9394 96.0311 18.3497 94.9062 18.3497C92.7569 18.3497 91.2093 16.8642 91.2093 14.7351C91.2093 12.6555 92.6924 11.1064 94.8274 11.1064C96.2675 11.1064 97.4282 11.7925 98.0013 13.1011C98.2521 13.667 98.3166 14.537 98.1303 15.1241L98.1088 15.2019H92.8572ZM84.6323 14.7351C84.6323 17.614 88.6516 17.3735 88.6516 14.7351C88.6516 12.0967 84.6323 11.8562 84.6323 14.7351ZM68.77 13.9429H72.4526C72.4311 13.8226 72.3809 13.7024 72.3308 13.5892C72.0155 12.9313 71.3922 12.5706 70.6543 12.5706C69.8519 12.5706 69.0924 13.0021 68.8202 13.7802C68.7987 13.8297 68.7843 13.8863 68.77 13.9429ZM76.6725 13.9429H80.3622C80.3336 13.8226 80.2906 13.7024 80.2333 13.5892C79.918 12.9313 79.2947 12.5706 78.5639 12.5706C77.7543 12.5706 76.9949 13.0021 76.7226 13.7802C76.7083 13.8297 76.6868 13.8863 76.6725 13.9429ZM92.9503 13.9429H96.6401C96.6114 13.8226 96.5684 13.7024 96.5111 13.5892C96.1959 12.9313 95.5725 12.5706 94.8418 12.5706C94.0322 12.5706 93.2727 13.0021 93.0005 13.7731C92.979 13.8297 92.9646 13.8863 92.9503 13.9429ZM101.018 12.1391C101.655 11.4388 102.551 11.1276 103.518 11.1276H103.891L103.898 12.705H103.203C101.67 12.705 101.032 13.7377 101.032 15.1524V18.2648H99.3769V11.2054H101.018V12.1391Z" fill="#CCCED7"/>
    <path fill-rule="evenodd" clip-rule="evenodd" d="M36.8298 24.178H34.9956V26.9932H34.5371V23.7536H37.2955V26.9932H36.8298V24.178ZM40.5625 24.178H39.1869C39.1869 24.8217 39.1797 25.6634 39.0149 26.2859C38.9361 26.5759 38.8 26.8871 38.4919 26.9932C38.3773 27.0357 38.2627 27.0428 38.148 27.0428C38.0406 27.0428 37.8829 27.0215 37.7826 26.9932L37.711 26.972L37.797 26.5405L37.8829 26.5618C37.9331 26.5759 38.0406 26.6042 38.0979 26.6042C38.148 26.6042 38.2054 26.5971 38.2555 26.583C38.4704 26.5264 38.5492 26.2576 38.5922 26.0737C38.7427 25.4654 38.7427 24.6236 38.7427 23.9941V23.7536H41.0282V26.9932H40.5625V24.178ZM44.1447 25.0339V25.0056C44.1447 24.4114 43.7794 24.1426 43.199 24.1426C42.8551 24.1426 42.5542 24.2275 42.2533 24.376L42.1745 24.4185L42.0026 24.0082L42.0742 23.9728C42.4468 23.8031 42.7978 23.7041 43.2134 23.7041C43.5931 23.7041 43.9871 23.7889 44.2594 24.0648C44.5101 24.3124 44.6033 24.6448 44.6033 24.9914V26.9932H44.1447V26.6183C43.8582 26.9154 43.4641 27.064 43.0342 27.064C42.3751 27.064 41.7446 26.7244 41.7446 26.0029C41.7446 25.2178 42.4969 24.9207 43.1919 24.9207C43.5286 24.9207 43.8295 24.9561 44.1447 25.0339ZM46.3013 24.178H45.1335V23.7536H47.9348V24.178H46.7598V26.9932H46.3013V24.178ZM48.7945 25.5715C48.8733 26.1656 49.3032 26.6254 49.9337 26.6254C50.3492 26.6254 50.6645 26.4627 50.9439 26.1656L51.0012 26.109L51.3308 26.3991L51.2735 26.4627C50.8937 26.8588 50.4854 27.064 49.9194 27.064C48.9593 27.064 48.3073 26.2788 48.3073 25.3663C48.3073 24.4821 48.9378 23.6758 49.8692 23.6758C50.8436 23.6758 51.3881 24.4751 51.3881 25.3734C51.3881 25.4158 51.3809 25.4583 51.3809 25.5007L51.3666 25.5715H48.7945ZM49.0596 23.3999V22.7562H49.6471V23.3999H49.0596ZM50.0627 23.3999V22.7562H50.643V23.3999H50.0627ZM52.9858 25.1683L51.6603 23.7536H52.2622L53.9315 25.5856V23.7536H54.3972V25.5856L56.0665 23.7536H56.6684L55.3429 25.1683L56.7257 26.9932H56.1525L55.0348 25.5007L54.3972 26.1869V26.9932H53.9315V26.1869L53.2939 25.5007L52.1762 26.9932H51.6102L52.9858 25.1683ZM57.6714 25.1188H59.5843V23.7536H60.05V26.9932H59.5843V25.5502H57.6714V26.9932H57.2129V23.7536H57.6714V25.1188ZM63.1666 25.0339V25.0056C63.1666 24.4114 62.794 24.1426 62.2209 24.1426C61.877 24.1426 61.5761 24.2275 61.2752 24.376L61.1963 24.4185L61.0244 24.0082L61.096 23.9728C61.4686 23.8031 61.8197 23.7041 62.2352 23.7041C62.6149 23.7041 63.0018 23.7889 63.2812 24.0648C63.532 24.3124 63.6251 24.6448 63.6251 24.9914V26.9932H63.1666V26.6183C62.8728 26.9154 62.486 27.064 62.0561 27.064C61.3898 27.064 60.7665 26.7244 60.7665 26.0029C60.7665 25.2178 61.5187 24.9207 62.2137 24.9207C62.5504 24.9207 62.8442 24.9561 63.1666 25.0339ZM65.2085 25.7342C64.7428 25.6068 64.3702 25.2602 64.3702 24.7509C64.3702 24.0648 64.9649 23.7536 65.5954 23.7536H67.0784V26.9932H66.6127V25.8049H65.7028L64.7786 26.9932H64.1983L65.2085 25.7342ZM72.1867 24.178H70.3526V26.9932H69.8869V23.7536H72.6453V26.9932H72.1867V24.178ZM75.9195 24.178H74.5439C74.5439 24.8217 74.5367 25.6634 74.3648 26.2859C74.2859 26.5759 74.157 26.8871 73.8417 26.9932C73.7343 27.0357 73.6196 27.0428 73.505 27.0428C73.3975 27.0428 73.2399 27.0215 73.1396 26.9932L73.068 26.972L73.1539 26.5405L73.2399 26.5618C73.2901 26.5759 73.3975 26.6042 73.4549 26.6042C73.505 26.6042 73.5623 26.5971 73.6125 26.583C73.8203 26.5264 73.8991 26.2576 73.9492 26.0737C74.0925 25.4654 74.0925 24.6236 74.0925 23.9941V23.7536H76.378V26.9932H75.9195V24.178ZM79.5017 25.0339V25.0056C79.5017 24.4114 79.1292 24.1426 78.556 24.1426C78.2121 24.1426 77.9112 24.2275 77.6103 24.376L77.5315 24.4185L77.3595 24.0082L77.4312 23.9728C77.8037 23.8031 78.1548 23.7041 78.5703 23.7041C78.9501 23.7041 79.3369 23.7889 79.6164 24.0648C79.8671 24.3124 79.9531 24.6448 79.9531 24.9914V26.9932H79.5017V26.6183C79.208 26.9154 78.8139 27.064 78.3841 27.064C77.7249 27.064 77.1016 26.7244 77.1016 26.0029C77.1016 25.2178 77.8539 24.9207 78.5488 24.9207C78.8856 24.9207 79.1793 24.9561 79.5017 25.0339ZM81.6582 24.178H80.4833V23.7536H83.2846V24.178H82.1168V26.9932H81.6582V24.178ZM85.7779 26.8023C85.5558 26.9649 85.3337 27.064 85.0327 27.064C84.0727 27.064 83.6786 26.201 83.6786 25.3593C83.6786 24.5246 84.0727 23.6758 85.0327 23.6758C85.3408 23.6758 85.5558 23.7748 85.7779 23.9446V22.6006H86.2364V23.9446C86.4513 23.7748 86.6734 23.6758 86.9815 23.6758C87.9415 23.6758 88.3356 24.5317 88.3356 25.3734C88.3356 26.2081 87.9344 27.064 86.9815 27.064C86.6519 27.064 86.4585 26.9791 86.2364 26.8093V27.9623H85.7779V26.8023ZM90.5781 27.064C89.618 27.064 88.8944 26.3071 88.8944 25.3734C88.8944 24.4397 89.6324 23.6758 90.5853 23.6758C91.5453 23.6758 92.2689 24.4397 92.2689 25.3734C92.2689 26.3 91.531 27.064 90.5781 27.064ZM93.4941 24.277C93.795 23.9092 94.1819 23.6758 94.6977 23.6758C95.6434 23.6758 96.2954 24.468 96.2954 25.3734C96.2954 26.2717 95.6363 27.064 94.6977 27.064C94.1962 27.064 93.795 26.8518 93.4941 26.491V27.9623H93.0284V23.7536H93.4941V24.277ZM98.6955 25.4654L99.9278 23.7536H100.315V26.9932H99.8562V24.5882L98.6812 26.1869L97.5205 24.5953V26.9932H97.0692V23.7536H97.4632L98.6955 25.4654ZM103.438 25.0339V25.0056C103.438 24.4114 103.066 24.1426 102.493 24.1426C102.149 24.1426 101.848 24.2275 101.547 24.376L101.468 24.4185L101.296 24.0082L101.368 23.9728C101.74 23.8031 102.091 23.7041 102.507 23.7041C102.887 23.7041 103.274 23.7889 103.553 24.0648C103.804 24.3124 103.897 24.6448 103.897 24.9914V26.9932H103.438V26.6183C103.145 26.9154 102.758 27.064 102.328 27.064C101.662 27.064 101.038 26.7244 101.038 26.0029C101.038 25.2178 101.791 24.9207 102.486 24.9207C102.822 24.9207 103.116 24.9561 103.438 25.0339ZM44.1519 25.4724C43.8295 25.3946 43.5143 25.3522 43.1704 25.3522C42.7405 25.3522 42.2318 25.4937 42.2318 26.0029C42.2318 26.4556 42.6402 26.6254 43.0486 26.6254C43.5644 26.6254 44.1519 26.3283 44.1519 25.7554V25.4724ZM48.8017 25.1471H50.8937C50.8221 24.5882 50.4854 24.1072 49.862 24.1072C49.2602 24.1072 48.8733 24.6024 48.8017 25.1471ZM63.1738 25.4724C62.8442 25.3946 62.5289 25.3522 62.1922 25.3522C61.7623 25.3522 61.2537 25.4937 61.2537 26.0029C61.2537 26.4556 61.662 26.6254 62.0704 26.6254C62.5863 26.6254 63.1738 26.3283 63.1738 25.7554V25.4724ZM66.6127 25.3805V24.178H65.6384C65.2515 24.178 64.8574 24.3336 64.8574 24.7651C64.8574 25.1966 65.2658 25.3805 65.6527 25.3805H66.6127ZM79.5089 25.4724C79.1793 25.3946 78.8641 25.3522 78.5273 25.3522C78.0975 25.3522 77.5888 25.4937 77.5888 26.0029C77.5888 26.4556 77.9972 26.6254 78.4056 26.6254C78.9214 26.6254 79.5089 26.3283 79.5089 25.7554V25.4724ZM85.7779 26.3V24.4397C85.5773 24.2416 85.3552 24.1214 85.0614 24.1214C84.345 24.1214 84.1587 24.7863 84.1587 25.3805C84.1587 26.0029 84.3235 26.6183 85.0614 26.6183C85.3552 26.6183 85.5773 26.5052 85.7779 26.3ZM86.2364 24.4397V26.3C86.437 26.5052 86.6591 26.6183 86.9528 26.6183C87.6908 26.6183 87.8484 25.9888 87.8484 25.3734C87.8484 24.7792 87.6621 24.1214 86.9528 24.1214C86.6591 24.1214 86.437 24.2416 86.2364 24.4397ZM90.5853 26.6254C91.2731 26.6254 91.7817 26.0242 91.7817 25.3734C91.7817 24.7085 91.2659 24.1143 90.5781 24.1143C89.8903 24.1143 89.3816 24.7085 89.3816 25.3734C89.3816 26.0454 89.8903 26.6254 90.5853 26.6254ZM94.669 26.6183C95.3927 26.6183 95.8082 26.0595 95.8082 25.3734C95.8082 24.7085 95.364 24.1214 94.669 24.1214C93.9741 24.1214 93.4726 24.7156 93.4726 25.3805C93.4726 26.0383 93.9813 26.6183 94.669 26.6183ZM103.446 25.4724C103.116 25.3946 102.801 25.3522 102.464 25.3522C102.034 25.3522 101.526 25.4937 101.526 26.0029C101.526 26.4556 101.934 26.6254 102.342 26.6254C102.858 26.6254 103.446 26.3283 103.446 25.7554V25.4724Z" fill="#CCCED7"/>
    <path fill-rule="evenodd" clip-rule="evenodd" d="M23.2117 18.2592L27.9331 13.5977L23.2117 8.94336C24.3866 8.94336 25.5616 8.94336 26.7366 8.94336L31.458 13.5977L26.7366 18.2592C25.5616 18.2592 24.3866 18.2592 23.2117 18.2592ZM17 18.2592L21.7214 13.5977L17 8.94336C18.175 8.94336 19.35 8.94336 20.525 8.94336L25.2464 13.5977L20.525 18.2592C19.35 18.2592 18.175 18.2592 17 18.2592Z" fill="#CCCED7"/>
</g>
</svg>
