<svg width="120" height="35" viewBox="0 0 120 35" fill="none" xmlns="http://www.w3.org/2000/svg">
  <g opacity="0.6">
    <path d="M55.2969 10.2598L52.7207 25.3779H56.8409L59.4193 10.2598H55.2969Z" fill="#E0E0E0"/>
    <path d="M49.2662 10.2766L45.2307 20.5867L44.8005 19.03C44.0046 17.1543 41.7453 14.4604 39.0928 12.7627L42.7828 25.3704L47.1425 25.3629L53.6312 10.2734L49.2662 10.2766Z" fill="#E0E0E0"/>
    <path d="M43.2362 11.3586C42.9967 10.4377 42.3026 10.1632 41.441 10.1304H35.053L35 10.4313C39.9712 11.6373 43.2606 14.5431 44.6255 18.037L43.2362 11.3586Z" fill="#E0E0E0"/>
    <path d="M67.7696 13.158C69.1176 13.1368 70.0947 13.4314 70.8534 13.7366L71.2254 13.9115L71.7828 10.6348C70.9668 10.3285 69.6877 10 68.0918 10C64.0203 10 61.1505 12.0506 61.1283 14.9892C61.1018 17.1606 63.1725 18.3729 64.7367 19.0967C66.3422 19.8385 66.8805 20.3101 66.8731 20.9725C66.8604 21.9845 65.5929 22.4487 64.4092 22.4487C62.7592 22.4487 61.8828 22.2208 60.5295 21.657L59.9986 21.4154L59.4189 24.7991C60.3833 25.222 62.1626 25.5855 64.0097 25.6045C68.3408 25.6045 71.1555 23.5783 71.1851 20.4383C71.2031 18.7205 70.1042 17.4096 67.723 16.334C66.2818 15.6325 65.4001 15.1662 65.4085 14.4583C65.4085 13.8299 66.1567 13.158 67.7696 13.158Z" fill="#E0E0E0"/>
    <path d="M82.3574 10.2764H79.174C78.1852 10.2764 77.4498 10.5455 77.0153 11.5311L70.8975 25.386H75.2243C75.2243 25.386 75.9301 23.523 76.0901 23.115C76.5638 23.115 80.7678 23.1214 81.3665 23.1214C81.4895 23.6491 81.8689 25.386 81.8689 25.386H85.6913L82.3574 10.2764ZM77.276 20.0206C77.6151 19.1527 78.9175 15.7954 78.9175 15.7954C78.8952 15.8368 79.2534 14.9212 79.4664 14.3521L79.7441 15.6556C79.7441 15.6556 80.5336 19.265 80.6989 20.0206H77.276Z" fill="#E0E0E0"/>
  </g>
</svg>
