<?xml version="1.0" encoding="utf-8"?>
<!-- Generator: Adobe Illustrator 19.2.1, SVG Export Plug-In . SVG Version: 6.00 Build 0)  -->
<svg version="1.1" id="Слой_1" xmlns="http://www.w3.org/2000/svg" xmlns:xlink="http://www.w3.org/1999/xlink" x="0px" y="0px"
	 viewBox="0 0 112 25" style="enable-background:new 0 0 112 25;" xml:space="preserve">
<style type="text/css">
	.st0{fill:#C14E45;}
	.st1{fill:#E7A344;}
</style>
<g>
	<path class="st0" d="M39,10.7c0.4,0,0.9-0.1,1.2-0.3c0.7-0.4,1.1-1.2,1.1-2c0-0.9-0.4-1.6-1.2-2.1C39.8,6,39.5,5.9,39,5.9
		c-0.4,0-0.8,0.1-1.2,0.3c-0.7,0.4-1.2,1.2-1.2,2.1c0,0.8,0.4,1.6,1.1,2C38.2,10.6,38.6,10.7,39,10.7z M28.5,7.4V3.6h2.1
		c0.5,0,1,0.2,1.4,0.6v0c0.4,0.4,0.6,0.8,0.6,1.3c0,0.5-0.2,1-0.6,1.4c-0.4,0.4-0.8,0.6-1.4,0.6h-0.4H28.5z M28.5,9.3h1.7h0.4
		c0.5,0,1-0.1,1.5-0.3c0.5-0.2,0.9-0.5,1.2-0.8c0.4-0.3,0.6-0.8,0.8-1.2c0.2-0.5,0.3-1,0.3-1.5c0-0.5-0.1-1-0.3-1.5
		c-0.2-0.5-0.5-0.9-0.8-1.2C32.9,2.5,32.5,2.2,32,2c-0.5-0.2-1-0.3-1.5-0.3h-4v10.5h1.9V9.3z M41.5,11.3c-0.7,0.7-1.6,1.1-2.6,1.1
		c-2.3,0-4-1.8-4-4.1c0-2.3,1.7-4.1,4-4.1c1,0,1.9,0.4,2.6,1.1v-1h1.8v8h-1.8V11.3z M51.1,11.2c-0.6,0.7-1.5,1-2.4,1
		c-2.4,0-3.6-1.6-3.6-3.9V4.3h1.8v4c0,1.3,0.5,2.2,2,2.2c1.5,0,2.2-1.1,2.2-2.5V4.3h1.8v6.9c0,2.4-1.5,4.1-4,4.1
		c-1.3,0-2.5-0.4-3.5-1.2L45.3,14l1.1-1.1l0.1,0c0.8,0.5,1.5,0.7,2.5,0.7c1.4,0,2.2-0.7,2.2-2.1V11.2z"/>
	<path class="st1" d="M82.1,6.5l0.1-0.1c0,0,0,0,0,0v0l0.1-0.1h0l0,0l0,0l0,0h0c0,0,0-0.1,0-0.1l0,0c0,0,0,0,0,0l0,0l0,0v0
		c0,0,0.1-0.1,0.1-0.1v0c0,0,0,0,0,0h0c0.8-1,1.9-1.6,3.2-1.6h0.2c2.3,0,3.9,1.9,3.9,4.1c0,2.3-1.7,4.1-4,4.1c-0.9,0-1.8-0.4-2.4-1
		v3.8h-1.8v-7h0c0-0.5,0.1-1,0.3-1.5l0,0l0,0l0,0L82.1,6.5L82.1,6.5L82.1,6.5z M54.7,1.7h1.9v10.5h-1.9V1.7z M59.3,7l4.5,5.3h-2.5
		L56.9,7l4.3-5.3h2.5L59.3,7z M65.3,8.8c0.1,1.3,1.1,1.9,2.3,1.9c0.9,0,1.7-0.2,2.5-0.7l0.1,0l1,1.1l-0.1,0.1
		c-1,0.8-2.2,1.2-3.5,1.2c-2.4,0-4.2-1.7-4.2-4.1c0-2.4,1.7-4.1,4.1-4.1c1.6,0,3,0.8,3.6,2.3c0.3,0.6,0.4,1.6,0.1,2.3l0,0.1H65.3z
		 M74.3,8.8c0.1,1.3,1.1,1.9,2.3,1.9c0.9,0,1.7-0.2,2.5-0.7l0.1,0l1,1.1l-0.1,0.1c-1,0.8-2.2,1.2-3.5,1.2c-2.4,0-4.2-1.7-4.2-4.1
		c0-2.4,1.7-4.1,4.1-4.1c1.6,0,3,0.8,3.6,2.3c0.3,0.6,0.4,1.6,0.1,2.3l0,0.1H74.3z M92.8,8.8c0.1,1.3,1.1,1.9,2.3,1.9
		c0.9,0,1.7-0.2,2.5-0.7l0.1-0.1l1,1.1l-0.1,0.1c-1,0.8-2.2,1.2-3.5,1.2c-2.4,0-4.2-1.7-4.2-4.1c0-2.4,1.7-4.1,4.1-4.1
		c1.6,0,3,0.8,3.6,2.3C99,7.1,99,8.1,98.8,8.7l0,0.1H92.8z M83.5,8.3c0,3.3,4.6,3,4.6,0C88,5.3,83.5,5,83.5,8.3z M65.5,7.4h4.2
		c0-0.1-0.1-0.3-0.1-0.4c-0.4-0.7-1.1-1.2-1.9-1.2c-0.9,0-1.8,0.5-2.1,1.4C65.5,7.3,65.5,7.3,65.5,7.4z M74.4,7.4h4.2
		c0-0.1-0.1-0.3-0.1-0.4c-0.4-0.7-1.1-1.2-1.9-1.2c-0.9,0-1.8,0.5-2.1,1.4C74.5,7.3,74.5,7.3,74.4,7.4z M92.9,7.4h4.2
		C97.1,7.2,97,7.1,97,7c-0.4-0.7-1.1-1.2-1.9-1.2c-0.9,0-1.8,0.5-2.1,1.4C93,7.3,92.9,7.3,92.9,7.4z M102.1,5.3
		c0.7-0.8,1.7-1.1,2.8-1.1h0.4l0,1.8h-0.8c-1.7,0-2.5,1.2-2.5,2.8v3.5h-1.9v-8h1.9V5.3z"/>
	<path class="st0" d="M29.2,19h-2.1v3.2h-0.5v-3.7h3.1v3.7h-0.5V19z M33.4,19h-1.6c0,0.7,0,1.7-0.2,2.4c-0.1,0.3-0.2,0.7-0.6,0.8
		c-0.1,0-0.3,0.1-0.4,0.1c-0.1,0-0.3,0-0.4-0.1l-0.1,0l0.1-0.5l0.1,0c0.1,0,0.2,0,0.2,0c0.1,0,0.1,0,0.2,0c0.2-0.1,0.3-0.4,0.4-0.6
		c0.2-0.7,0.2-1.6,0.2-2.4v-0.3h2.6v3.7h-0.5V19z M37.5,20L37.5,20c0-0.7-0.4-1-1.1-1c-0.4,0-0.7,0.1-1.1,0.3l-0.1,0L35,18.8l0.1,0
		c0.4-0.2,0.8-0.3,1.3-0.3c0.4,0,0.9,0.1,1.2,0.4c0.3,0.3,0.4,0.7,0.4,1.1v2.3h-0.5v-0.4c-0.3,0.3-0.8,0.5-1.3,0.5
		c-0.7,0-1.5-0.4-1.5-1.2c0-0.9,0.9-1.2,1.6-1.2C36.8,19.9,37.1,19.9,37.5,20z M39.9,19h-1.3v-0.5h3.2V19h-1.3v3.2h-0.5V19z
		 M42.8,20.6c0.1,0.7,0.6,1.2,1.3,1.2c0.5,0,0.8-0.2,1.1-0.5l0.1-0.1l0.4,0.3l-0.1,0.1c-0.4,0.5-0.9,0.7-1.5,0.7
		c-1.1,0-1.8-0.9-1.8-1.9c0-1,0.7-1.9,1.8-1.9c1.1,0,1.7,0.9,1.7,1.9c0,0,0,0.1,0,0.1l0,0.1H42.8z M43.1,18.1v-0.7h0.7v0.7H43.1z
		 M44.2,18.1v-0.7h0.7v0.7H44.2z M47.5,20.1L46,18.5h0.7l1.9,2.1v-2.1h0.5v2.1l1.9-2.1h0.7l-1.5,1.6l1.6,2.1h-0.7l-1.3-1.7l-0.7,0.8
		v0.9h-0.5v-0.9l-0.7-0.8l-1.3,1.7H46L47.5,20.1z M52.8,20.1H55v-1.6h0.5v3.7H55v-1.6h-2.2v1.6h-0.5v-3.7h0.5V20.1z M59.1,20
		L59.1,20c0-0.7-0.4-1-1.1-1c-0.4,0-0.7,0.1-1.1,0.3l-0.1,0l-0.2-0.5l0.1,0c0.4-0.2,0.8-0.3,1.3-0.3c0.4,0,0.9,0.1,1.2,0.4
		c0.3,0.3,0.4,0.7,0.4,1.1v2.3h-0.5v-0.4c-0.3,0.3-0.8,0.5-1.3,0.5c-0.8,0-1.5-0.4-1.5-1.2c0-0.9,0.9-1.2,1.6-1.2
		C58.4,19.9,58.7,19.9,59.1,20z M61.4,20.8c-0.5-0.1-1-0.5-1-1.1c0-0.8,0.7-1.1,1.4-1.1h1.7v3.7H63v-1.4h-1l-1.1,1.4h-0.7L61.4,20.8
		z M69.3,19h-2.1v3.2h-0.5v-3.7h3.1v3.7h-0.5V19z M73.6,19H72c0,0.7,0,1.7-0.2,2.4c-0.1,0.3-0.2,0.7-0.6,0.8c-0.1,0-0.3,0.1-0.4,0.1
		c-0.1,0-0.3,0-0.4-0.1l-0.1,0l0.1-0.5l0.1,0c0.1,0,0.2,0,0.2,0c0.1,0,0.1,0,0.2,0c0.2-0.1,0.3-0.4,0.4-0.6c0.2-0.7,0.2-1.6,0.2-2.4
		v-0.3h2.6v3.7h-0.5V19z M77.7,20L77.7,20c0-0.7-0.4-1-1.1-1c-0.4,0-0.7,0.1-1.1,0.3l-0.1,0l-0.2-0.5l0.1,0c0.4-0.2,0.8-0.3,1.3-0.3
		c0.4,0,0.9,0.1,1.2,0.4c0.3,0.3,0.4,0.7,0.4,1.1v2.3h-0.5v-0.4c-0.3,0.3-0.8,0.5-1.3,0.5c-0.7,0-1.5-0.4-1.5-1.2
		c0-0.9,0.9-1.2,1.6-1.2C77,19.9,77.3,19.9,77.7,20z M80.1,19h-1.3v-0.5h3.2V19h-1.3v3.2h-0.5V19z M84.8,22
		c-0.3,0.2-0.5,0.3-0.8,0.3c-1.1,0-1.5-1-1.5-1.9c0-0.9,0.4-1.9,1.5-1.9c0.4,0,0.6,0.1,0.8,0.3v-1.5h0.5v1.5
		c0.2-0.2,0.5-0.3,0.8-0.3c1.1,0,1.5,1,1.5,1.9c0,0.9-0.5,1.9-1.5,1.9c-0.4,0-0.6-0.1-0.8-0.3v1.3h-0.5V22z M90.2,22.3
		c-1.1,0-1.9-0.9-1.9-1.9c0-1.1,0.8-1.9,1.9-1.9c1.1,0,1.9,0.9,1.9,1.9C92.2,21.4,91.3,22.3,90.2,22.3z M93.6,19.1
		c0.3-0.4,0.8-0.7,1.4-0.7c1.1,0,1.8,0.9,1.8,1.9c0,1-0.7,1.9-1.8,1.9c-0.6,0-1-0.2-1.4-0.7v1.7H93v-4.8h0.5V19.1z M99.5,20.5
		l1.4-1.9h0.4v3.7h-0.5v-2.7l-1.3,1.8l-1.3-1.8v2.7h-0.5v-3.7h0.4L99.5,20.5z M104.9,20L104.9,20c0-0.7-0.4-1-1.1-1
		c-0.4,0-0.7,0.1-1.1,0.3l-0.1,0l-0.2-0.5l0.1,0c0.4-0.2,0.8-0.3,1.3-0.3c0.4,0,0.9,0.1,1.2,0.4c0.3,0.3,0.4,0.7,0.4,1.1v2.3h-0.5
		v-0.4c-0.3,0.3-0.8,0.5-1.3,0.5c-0.8,0-1.5-0.4-1.5-1.2c0-0.9,0.9-1.2,1.6-1.2C104.2,19.9,104.5,19.9,104.9,20z M37.5,20.5
		c-0.4-0.1-0.7-0.1-1.1-0.1c-0.5,0-1.1,0.2-1.1,0.7c0,0.5,0.5,0.7,0.9,0.7c0.6,0,1.3-0.3,1.3-1V20.5z M42.8,20.1h2.4
		c-0.1-0.6-0.5-1.2-1.2-1.2C43.3,18.9,42.8,19.5,42.8,20.1z M59.1,20.5c-0.4-0.1-0.7-0.1-1.1-0.1c-0.5,0-1.1,0.2-1.1,0.7
		c0,0.5,0.5,0.7,0.9,0.7c0.6,0,1.3-0.3,1.3-1V20.5z M63,20.4V19h-1.1c-0.4,0-0.9,0.2-0.9,0.7s0.5,0.7,0.9,0.7H63z M77.7,20.5
		c-0.4-0.1-0.7-0.1-1.1-0.1c-0.5,0-1.1,0.2-1.1,0.7c0,0.5,0.5,0.7,0.9,0.7c0.6,0,1.3-0.3,1.3-1V20.5z M84.8,21.4v-2.1
		C84.6,19.1,84.3,19,84,19c-0.8,0-1,0.8-1,1.4c0,0.7,0.2,1.4,1,1.4C84.3,21.8,84.6,21.7,84.8,21.4z M85.3,19.3v2.1
		c0.2,0.2,0.5,0.4,0.8,0.4c0.8,0,1-0.7,1-1.4c0-0.7-0.2-1.4-1-1.4C85.8,19,85.5,19.1,85.3,19.3z M90.2,21.8c0.8,0,1.4-0.7,1.4-1.4
		c0-0.8-0.6-1.4-1.4-1.4s-1.4,0.7-1.4,1.4C88.9,21.1,89.5,21.8,90.2,21.8z M94.9,21.8c0.8,0,1.3-0.6,1.3-1.4c0-0.8-0.5-1.4-1.3-1.4
		c-0.8,0-1.4,0.7-1.4,1.4C93.5,21.1,94.1,21.8,94.9,21.8z M104.9,20.5c-0.4-0.1-0.7-0.1-1.1-0.1c-0.5,0-1.1,0.2-1.1,0.7
		c0,0.5,0.5,0.7,0.9,0.7c0.6,0,1.3-0.3,1.3-1V20.5z"/>
	<path class="st0" d="M13.7,12.3L19.1,7l-5.4-5.3c1.3,0,2.7,0,4,0L23.1,7l-5.4,5.3C16.4,12.3,15,12.3,13.7,12.3z M6.6,12.3L12,7
		L6.6,1.7c1.3,0,2.7,0,4,0L16,7l-5.4,5.3C9.3,12.3,8,12.3,6.6,12.3z"/>
</g>
</svg>
