<svg xmlns="http://www.w3.org/2000/svg" viewBox="0 0 18 22">
	<g>
		<path d="M17.4,5.8L17.4,5.8L17.4,5.8c0-0.4-0.3-0.6-0.7-0.6h-2.4C14.2,2.9,12.2,0.1,9,0.1c-3.2,0-5.2,2.8-5.3,5.1H1.3c-0.4,0-0.7,0.3-0.7,0.6l0,0l0,0l-0.3,13h0v0c0,0,0,0,0,0l0,0c0,0,0,0,0,0c0,1.7,1.5,3,3.3,3h10.8c1.8,0,3.3-1.3,3.3-3v0c0,0,0,0,0-0.1L17.4,5.8z M9,1.5c1.1,0,2.1,0.5,2.8,1.3c0.7,0.7,1.1,1.6,1.1,2.4H5.1c0-0.8,0.3-1.7,0.9-2.4C6.7,2,7.7,1.5,9,1.5z M3.6,20.5c-1.1,0-1.9-0.7-2-1.6L1.9,6.6h1.9H5h8h1.2h1.9L16.4,19c0,0.8-0.9,1.6-2,1.6H3.6z"/>
		<path d="M14.4,22H3.6c-1.9,0-3.4-1.4-3.4-3.1c0,0,0,0,0,0l0.3-13c0-0.4,0.4-0.7,0.8-0.7h2.4C3.8,2.6,5.8,0,9,0s5.2,2.6,5.4,5.1h2.4c0.4,0,0.8,0.3,0.8,0.7v0l0.3,13c0,0,0,0,0,0.1C17.8,20.6,16.3,22,14.4,22z M1.3,5.3C1,5.3,0.7,5.5,0.7,5.9L0.4,18.9c0,1.6,1.5,2.9,3.2,2.9h10.8c1.8,0,3.2-1.3,3.2-2.9c0,0,0,0,0,0l-0.3-13c0-0.3-0.3-0.5-0.6-0.5h-2.5l0-0.1c-0.1-2.4-2.1-5-5.2-5s-5.1,2.6-5.2,5l0,0.1H1.3z M14.4,20.6H3.6c-1.1,0-2-0.7-2.1-1.7L1.8,6.5h14.4l0,0.1L16.5,19C16.4,19.9,15.5,20.6,14.4,20.6z M2,6.7L1.7,19c0,0.8,0.8,1.5,1.9,1.5h10.8c1,0,1.8-0.7,1.9-1.5L16,6.7H2z M13,5.3H5l0-0.1c0-0.9,0.4-1.8,1-2.5c0.5-0.6,1.4-1.3,3-1.3c1,0,2,0.5,2.8,1.3c0.7,0.7,1.1,1.7,1.2,2.5L13,5.3z M5.2,5.1h7.6c-0.1-0.8-0.5-1.6-1.1-2.3C10.9,2,10,1.6,9,1.6c-1.5,0-2.4,0.7-2.9,1.3C5.6,3.5,5.3,4.3,5.2,5.1z"/>
	</g>
</svg>
