<svg xmlns="http://www.w3.org/2000/svg" viewBox="0 0 22 20">
	<g>
		<path d="M15.6,0.5L15.6,0.5c-1.8,0-3.5,0.8-4.6,2.2C9.9,1.3,8.2,0.5,6.4,0.5h0c-3.1,0-5.9,2.9-5.9,6.2c0,3.2,1.8,6.4,5.1,9.3l0,0c1.5,1.4,3.2,2.5,5.1,3.5v0l0,0c0.2,0.1,0.4,0.1,0.5,0l0,0l0,0c1.8-1,3.5-2.2,5.1-3.5l0,0c3.3-2.9,5.1-6.2,5.1-9.3C21.5,3.4,18.7,0.5,15.6,0.5z M10.5,4L10.5,4L10.5,4c0.1,0.2,0.3,0.3,0.5,0.3c0.2,0,0.4-0.1,0.5-0.3l0,0l0,0c0.8-1.5,2.4-2.4,4.1-2.4c2.5,0,4.7,2.3,4.7,5c0,3.1-2,5.9-4.2,8c-2.1,2-4.3,3.3-5.1,3.7c-0.8-0.4-3-1.7-5.1-3.7c-2.2-2.1-4.2-4.8-4.2-8c0-2.7,2.2-5,4.7-5C8.1,1.7,9.7,2.6,10.5,4z"/>
		<path d="M11,19.8c-0.1,0-0.3,0-0.4-0.1c-1.8-1-3.6-2.2-5.1-3.6c-3.4-3-5.2-6.3-5.2-9.5c0-3.4,2.9-6.4,6.1-6.4C8.2,0.2,9.8,1,11,2.3c1.2-1.3,2.8-2.1,4.6-2.1h0c3.3,0,6.1,3,6.1,6.4c0,3.2-1.8,6.5-5.2,9.5c-1.6,1.4-3.3,2.6-5.1,3.5C11.3,19.7,11.1,19.8,11,19.8z M6.4,0.7c-3,0-5.6,2.8-5.6,5.9c0,3.1,1.7,6.2,5.1,9.1c1.5,1.3,3.2,2.5,5,3.5c0.1,0,0.2,0,0.3,0c1.8-1,3.5-2.1,5-3.5c3.3-2.9,5.1-6.1,5.1-9.1c0-3.1-2.6-5.9-5.6-5.9c-1.7,0-3.3,0.8-4.4,2.1L11,3.1l-0.2-0.2C9.7,1.5,8.1,0.7,6.4,0.7z M11,18.6l-0.1-0.1c-0.8-0.5-3-1.8-5.1-3.7c-2.9-2.7-4.3-5.4-4.3-8.1c0-2.8,2.3-5.2,4.9-5.2c1.8,0,3.4,1,4.3,2.5l0,0c0.1,0.2,0.5,0.2,0.6,0c0.9-1.5,2.5-2.5,4.3-2.5c2.6,0,4.9,2.4,4.9,5.2c0,2.7-1.4,5.5-4.3,8.1c-2.1,1.9-4.3,3.3-5.1,3.7L11,18.6z M6.4,1.9C4,1.9,2,4.1,2,6.6c0,2.6,1.4,5.2,4.1,7.8c1.9,1.8,4,3.1,4.9,3.6c0.9-0.5,3-1.8,4.9-3.6c2.7-2.6,4.1-5.2,4.1-7.8c0-2.5-2.1-4.7-4.4-4.7c-1.6,0-3.1,0.9-3.9,2.2c-0.4,0.5-1.1,0.5-1.4,0l0,0C9.5,2.8,8,1.9,6.4,1.9z"/>
	</g>
</svg>
