<svg xmlns="http://www.w3.org/2000/svg" viewBox="0 0 20 20">
	<g>
		<path d="M14.8,13.8c1.2-1.4,1.9-3.2,1.9-5.1c0-2.1-0.8-4.1-2.3-5.6c-1.5-1.5-3.5-2.3-5.6-2.3c-2.1,0-4.1,0.8-5.6,2.3S0.8,6.6,0.8,8.7c0,2.1,0.8,4.1,2.3,5.6c1.5,1.5,3.5,2.3,5.6,2.3c1.9,0,3.7-0.7,5.1-1.9l4.2,4.1l0,0l0,0c0.2,0.2,0.4,0.3,0.5,0.3c0.2,0,0.4,0,0.5-0.2c0.3-0.3,0.2-0.7-0.1-1.1l0,0l0,0L14.8,13.8z M13.3,13.4c-1.2,1.2-2.9,1.9-4.6,1.9c-1.7,0-3.4-0.7-4.6-1.9c-1.2-1.2-1.9-2.9-1.9-4.6C2.1,7,2.8,5.3,4,4.1C5.3,2.8,7,2.1,8.7,2.1c1.7,0,3.4,0.7,4.6,1.9c1.2,1.2,1.9,2.9,1.9,4.6C15.3,10.5,14.6,12.1,13.3,13.4z"/>
		<path d="M18.7,19.5c-0.1,0-0.1,0-0.2,0c-0.2,0-0.5-0.2-0.7-0.4l-4-4c-1.4,1.1-3.2,1.8-5.1,1.8c-2.2,0-4.2-0.9-5.8-2.4C1.4,13,0.5,10.9,0.5,8.7c0-2.2,0.9-4.2,2.4-5.8c1.5-1.5,3.6-2.4,5.8-2.4s4.2,0.9,5.8,2.4c1.5,1.5,2.4,3.6,2.4,5.8c0,1.8-0.6,3.6-1.8,5.1l4.1,4c0.4,0.5,0.4,1.1,0.1,1.4C19.1,19.4,18.9,19.5,18.7,19.5z M13.8,14.4l4.4,4.3c0.1,0.1,0.3,0.2,0.4,0.2c0.1,0,0.2,0,0.3-0.1c0.2-0.2,0.1-0.5-0.1-0.8l-4.4-4.3l0.2-0.2c1.2-1.4,1.8-3.1,1.8-4.9c0-2.1-0.8-4-2.3-5.4C12.7,1.8,10.7,1,8.7,1s-4,0.8-5.4,2.3C1.8,4.7,1,6.7,1,8.7c0,2.1,0.8,4,2.3,5.4c1.5,1.5,3.4,2.3,5.4,2.3c1.8,0,3.6-0.6,4.9-1.8L13.8,14.4z M8.7,15.5c-1.8,0-3.5-0.7-4.8-2c-1.3-1.3-2-3-2-4.8c0-1.8,0.7-3.5,2-4.8c1.3-1.3,3-2,4.8-2s3.5,0.7,4.8,2c1.3,1.3,2,3,2,4.8c0,1.8-0.7,3.5-2,4.8v0C12.2,14.8,10.5,15.5,8.7,15.5z M8.7,2.4C7,2.4,5.4,3.1,4.2,4.2C3,5.4,2.4,7,2.4,8.7c0,1.7,0.7,3.3,1.9,4.5C5.4,14.4,7,15,8.7,15c1.7,0,3.3-0.7,4.5-1.9C14.4,12,15,10.4,15,8.7c0-1.7-0.7-3.3-1.9-4.5C12,3,10.4,2.4,8.7,2.4z"/>
	</g>
</svg>
