<svg width="120" height="35" fill="none" xmlns="http://www.w3.org/2000/svg"><g opacity=".6"><path d="M53.554 20.983v-4.047c0-1.527-.983-2.555-2.564-2.569-.45-.028-.9.063-1.302.265a2.515 2.515 0 00-.986.885 2.384 2.384 0 00-.917-.868 2.408 2.408 0 00-1.236-.282 2.171 2.171 0 00-1.08.23c-.335.169-.619.42-.825.731v-.81h-1.417v6.465h1.431v-3.58c0-1.122.626-1.716 1.595-1.716.968 0 1.417.607 1.417 1.702v3.595h1.424v-3.581c0-1.122.653-1.716 1.594-1.716.942 0 1.432.607 1.432 1.702v3.595h1.434zm21.18-6.46h-2.316v-1.958h-1.432v1.959h-1.322v1.284h1.322v2.944c0 1.5.585 2.393 2.262 2.393a3.351 3.351 0 001.771-.499l-.408-1.203c-.38.224-.812.35-1.254.364-.708 0-.942-.432-.942-1.08v-2.919h2.316l.003-1.284zm12.09-.161a1.934 1.934 0 00-.99.24 1.913 1.913 0 00-.727.707v-.785h-1.404v6.46h1.418v-3.622c0-1.079.462-1.662 1.39-1.662.304-.004.605.051.888.162l.435-1.325a3.054 3.054 0 00-1.01-.175zm-18.279.675a4.904 4.904 0 00-2.658-.675c-1.65 0-2.722.785-2.722 2.067 0 1.055.79 1.703 2.248 1.905l.667.094c.776.108 1.146.31 1.146.675 0 .499-.517.785-1.486.785a3.493 3.493 0 01-2.177-.675l-.645 1.093a4.728 4.728 0 002.822.84c1.88 0 2.971-.88 2.971-2.108 0-1.136-.86-1.73-2.275-1.932l-.666-.094c-.613-.081-1.105-.203-1.105-.634 0-.473.462-.756 1.24-.756.714.01 1.412.2 2.03.553l.61-1.138zm37.968-.675a1.933 1.933 0 00-.99.24 1.91 1.91 0 00-.727.707v-.785h-1.405v6.46h1.418v-3.622c0-1.079.463-1.662 1.391-1.662a2.34 2.34 0 01.887.162l.435-1.325a3.05 3.05 0 00-1.009-.175zm-18.257 3.392c0 1.959 1.377 3.391 3.475 3.391a3.431 3.431 0 002.343-.771l-.68-1.136c-.49.37-1.088.573-1.704.58-1.132 0-1.962-.826-1.962-2.067s.833-2.053 1.962-2.067c.616.007 1.213.21 1.704.58l.68-1.136a3.432 3.432 0 00-2.343-.771c-2.098 0-3.475 1.432-3.475 3.391v.006zm13.274 0v-3.238h-1.418v.785a2.49 2.49 0 00-2.057-.947c-1.826 0-3.266 1.42-3.266 3.392s1.432 3.391 3.266 3.391a2.49 2.49 0 002.057-.947v.783h1.418v-3.22zm-5.274 0c0-1.136.749-2.067 1.976-2.067 1.173 0 1.962.893 1.962 2.067 0 1.173-.79 2.066-1.962 2.066-1.227 0-1.976-.933-1.976-2.066zM79.15 14.362c-1.905 0-3.244 1.379-3.244 3.392 0 2.053 1.391 3.391 3.34 3.391a3.981 3.981 0 002.672-.906l-.694-1.042a3.122 3.122 0 01-1.905.675c-.914 0-1.744-.418-1.948-1.581h4.838a6.66 6.66 0 00.027-.54c0-2.013-1.268-3.392-3.094-3.392l.008.003zm-.027 1.257c.914 0 1.5.567 1.65 1.568h-3.378c.15-.934.721-1.568 1.73-1.568h-.002zm35.554 2.135v-5.826h-1.418v3.378a2.487 2.487 0 00-2.057-.947c-1.826 0-3.266 1.42-3.266 3.392s1.431 3.392 3.266 3.392a2.487 2.487 0 002.057-.947v.782h1.418v-3.224zm1.657 2.633a.416.416 0 01.419.41.397.397 0 01-.122.289.443.443 0 01-.134.09.407.407 0 01-.163.031.424.424 0 01-.392-.25.397.397 0 010-.319.414.414 0 01.397-.25h-.005zm0 .729a.306.306 0 00.226-.092.321.321 0 000-.453.317.317 0 00-.226-.092.316.316 0 00-.252.117.321.321 0 00-.059.295.32.32 0 00.183.2.324.324 0 00.133.025h-.005zm.024-.513a.177.177 0 01.115.032.11.11 0 01.041.09.104.104 0 01-.033.078.155.155 0 01-.09.037l.125.143h-.098l-.117-.143h-.038v.143h-.081v-.377l.176-.003zm-.095.07v.103h.095a.094.094 0 00.052 0 .053.053 0 00.015-.017.04.04 0 00.004-.021.04.04 0 00-.004-.021.053.053 0 00-.015-.017.094.094 0 00-.052 0l-.095-.027zm-6.855-2.92c0-1.135.749-2.066 1.976-2.066 1.173 0 1.962.893 1.962 2.067 0 1.173-.789 2.066-1.962 2.066-1.227 0-1.976-.933-1.976-2.066zm-47.867 0v-3.237h-1.418v.785a2.49 2.49 0 00-2.05-.939c-1.825 0-3.265 1.42-3.265 3.392s1.432 3.391 3.266 3.391a2.489 2.489 0 002.057-.947v.783h1.418l-.008-3.227zm-5.274 0c0-1.135.748-2.066 1.976-2.066 1.172 0 1.962.893 1.962 2.067 0 1.173-.79 2.066-1.962 2.066-1.228 0-1.976-.93-1.976-2.066z" fill="#E0E0E0"/><path d="M25.136 10.075h-8.572v15.274h8.572V10.075z" fill="#DCDCDC"/><path d="M17.108 17.717a9.63 9.63 0 01.984-4.246 9.715 9.715 0 012.758-3.39 9.87 9.87 0 00-10.335-1.1 9.769 9.769 0 00-4.023 3.584A9.653 9.653 0 005 17.718c0 1.823.517 3.608 1.492 5.153a9.77 9.77 0 004.023 3.584 9.87 9.87 0 0010.335-1.1 9.714 9.714 0 01-2.759-3.391 9.63 9.63 0 01-.983-4.247z" fill="#C6C6C6"/><path d="M36.701 17.716a9.652 9.652 0 01-1.493 5.154 9.769 9.769 0 01-4.022 3.583 9.87 9.87 0 01-10.336-1.1 9.73 9.73 0 002.758-3.393 9.646 9.646 0 000-8.49 9.73 9.73 0 00-2.758-3.393 9.87 9.87 0 0110.337-1.1 9.768 9.768 0 014.022 3.585 9.652 9.652 0 011.492 5.154z" fill="#E0E0E0"/><path d="M35.76 23.73v-.313h.128v-.062h-.319v.065h.128v.313l.063-.003zm.628 0v-.378h-.084l-.114.27-.114-.27h-.101v.378h.057v-.283l.106.245h.074l.106-.245v.286l.07-.003z" fill="#F79E1B"/></g></svg>