<svg width="120" height="35" fill="none" xmlns="http://www.w3.org/2000/svg"><path d="M48.278 10v.007c-.006 0-2.07-.007-2.62 1.943-.504 1.788-1.925 6.725-1.965 6.861h-.392s-1.455-5.047-1.965-6.867c-.55-1.95-2.62-1.944-2.62-1.944H34v14.836h4.716v-8.81h.393l2.75 8.81h3.275l2.751-8.804h.393v8.804h4.716V10h-4.716zm17.225 0s-1.382.123-2.03 1.555l-3.34 7.256h-.394V10h-4.716v14.836h4.454s1.448-.13 2.096-1.555l3.275-7.256h.393v8.811h4.716V10h-4.454zm6.55 6.738v8.098h4.716v-4.73h5.108a5.099 5.099 0 004.814-3.368H72.053zM81.878 10H71.392c.524 2.825 2.665 5.092 5.436 5.83a7.61 7.61 0 001.971.26h8.082a4.93 4.93 0 00.105-1.037c0-2.792-2.285-5.053-5.108-5.053z" opacity=".6" fill-rule="evenodd" clip-rule="evenodd" fill="#E0E0E0"/></svg>