<svg width="120" height="35" fill="none" xmlns="http://www.w3.org/2000/svg"><path d="M45.528 16.843c.38 0 .752-.099 1.074-.297.638-.382.989-1.046.989-1.782 0-.757-.373-1.45-1.046-1.825a2.043 2.043 0 00-1.017-.269 2.03 2.03 0 00-1.032.276c-.66.382-1.025 1.068-1.025 1.818 0 .729.344 1.393.975 1.775a2 2 0 001.082.304zm-9.3-2.878v-3.353h1.827c.466 0 .867.17 1.196.495v.007c.344.318.502.707.502 1.167 0 .467-.172.856-.502 1.188a1.65 1.65 0 01-1.196.496h-1.827zm0 1.676h1.827c.451 0 .895-.092 1.318-.269a3.57 3.57 0 001.082-.721 3.38 3.38 0 00.724-1.061c.186-.418.272-.856.272-1.309 0-.446-.086-.884-.272-1.294a3.377 3.377 0 00-.724-1.061 3.697 3.697 0 00-1.082-.722 3.397 3.397 0 00-1.318-.262h-3.518v9.28h1.69v-2.581zm11.47 1.79c-.587.615-1.425.947-2.3.947-2.041 0-3.532-1.627-3.532-3.614 0-1.98 1.483-3.629 3.532-3.629.875 0 1.713.34 2.3.962v-.884h1.598v7.08h-1.598v-.862zm8.397-.114c-.508.609-1.304.899-2.106.899-2.092 0-3.138-1.43-3.138-3.396v-3.6h1.612v3.516c0 1.174.48 1.945 1.734 1.945 1.346 0 1.912-.962 1.912-2.207V11.22H57.7v6.09c0 2.122-1.333 3.587-3.518 3.587-1.139 0-2.22-.361-3.095-1.083l-.093-.07.931-.984.08.043c.687.41 1.36.63 2.177.63 1.197 0 1.913-.637 1.913-1.833v-.283zm27.334-4.187l.05-.1c.007-.007.007-.02.014-.028v-.007l.05-.092h.007l.015-.028.014-.014.014-.036h.008a.446.446 0 01.043-.07l.007-.015a.156.156 0 00.021-.035l.007-.007.03-.036v-.007c.028-.042.056-.077.085-.113v-.007a.124.124 0 00.029-.035h.007a3.562 3.562 0 012.823-1.38h.15c2.006.043 3.454 1.656 3.454 3.615 0 1.988-1.484 3.629-3.533 3.629a2.78 2.78 0 01-2.077-.92v3.339h-1.598v-6.204h.007c.014-.438.115-.87.294-1.28l.007-.014.007-.028.014-.021.015-.036.014-.035.022-.036zM59.306 8.927h1.698v9.28h-1.698v-9.28zm4.012 4.654l3.919 4.654H65l-3.775-4.654L65 8.928h2.236l-3.92 4.654zm5.359 1.62c.057 1.11.96 1.683 2.049 1.683.76 0 1.519-.205 2.178-.587l.072-.042.895.94-.1.078c-.881.665-1.92 1.076-3.045 1.076-2.15 0-3.704-1.486-3.704-3.615 0-2.08 1.49-3.629 3.618-3.629 1.447 0 2.608.687 3.181 1.995.244.566.315 1.436.129 2.023l-.029.078h-5.244zm7.902 0c.058 1.11.96 1.683 2.05 1.683.766 0 1.525-.205 2.177-.587l.08-.042.888.94-.094.078c-.888.665-1.927 1.076-3.052 1.076-2.149 0-3.697-1.486-3.697-3.615 0-2.08 1.484-3.629 3.619-3.629 1.44 0 2.6.687 3.174 1.995.25.566.315 1.436.129 2.023l-.022.078h-5.252zm16.278 0c.058 1.11.96 1.683 2.05 1.683a4.35 4.35 0 002.177-.587l.08-.05.888.949-.1.078c-.882.664-1.92 1.075-3.046 1.075-2.15 0-3.697-1.486-3.697-3.615 0-2.08 1.483-3.629 3.618-3.629 1.44 0 2.601.687 3.174 1.995.251.566.316 1.436.13 2.023l-.022.078h-5.252zm-8.225-.467c0 2.879 4.02 2.639 4.02 0 0-2.638-4.02-2.879-4.02 0zm-15.862-.792h3.683a1.595 1.595 0 00-.122-.354c-.316-.658-.939-1.018-1.677-1.018-.802 0-1.562.431-1.834 1.21a1.06 1.06 0 00-.05.162zm7.903 0h3.69a1.612 1.612 0 00-.13-.354c-.315-.658-.938-1.018-1.67-1.018-.809 0-1.568.431-1.84 1.21-.015.049-.036.105-.05.162zm16.277 0h3.69a1.618 1.618 0 00-.129-.354c-.315-.658-.938-1.018-1.67-1.018-.809 0-1.568.431-1.84 1.202a1.515 1.515 0 00-.05.17zm8.068-1.804c.637-.7 1.533-1.011 2.5-1.011h.373l.007 1.577h-.695c-1.533 0-2.171 1.033-2.171 2.447v3.113h-1.655v-7.06h1.641v.934zM36.83 24.178h-1.834v2.815h-.459v-3.24h2.758v3.24h-.465v-2.815zm3.733 0h-1.376c0 .644-.007 1.485-.172 2.108-.079.29-.215.601-.523.707a.964.964 0 01-.344.05 1.53 1.53 0 01-.365-.05l-.072-.021.086-.431.086.02a1 1 0 00.215.043c.05 0 .107-.007.157-.021.215-.057.294-.325.337-.51.15-.608.15-1.45.15-2.079v-.24h2.286v3.24h-.465v-2.816zm3.582.856v-.028c0-.595-.366-.863-.946-.863a2.07 2.07 0 00-.946.233l-.078.043-.172-.41.071-.036c.373-.17.724-.269 1.14-.269.38 0 .773.085 1.045.36.251.248.344.58.344.927v2.002h-.458v-.375c-.287.297-.68.446-1.11.446-.66 0-1.29-.34-1.29-1.061 0-.785.752-1.082 1.447-1.082.337 0 .638.035.953.113zm2.156-.856h-1.168v-.424h2.802v.424H46.76v2.815h-.46v-2.815zm2.493 1.393c.08.595.51 1.054 1.14 1.054.415 0 .73-.162 1.01-.46L51 26.11l.33.29-.058.064c-.38.396-.788.601-1.354.601-.96 0-1.612-.785-1.612-1.698 0-.884.63-1.69 1.562-1.69.975 0 1.52.8 1.52 1.697 0 .043-.008.085-.008.128l-.014.07h-2.572zm.266-2.171v-.644h.587v.644h-.587zm1.003 0v-.644h.58v.644h-.58zm2.923 1.768l-1.326-1.414h.602l1.67 1.832v-1.832h.465v1.832l1.67-1.832h.601l-1.325 1.414 1.383 1.825h-.573l-1.118-1.492-.638.686v.806h-.465v-.806l-.638-.686-1.118 1.492h-.566l1.376-1.825zm4.685-.05h1.913v-1.364h.466v3.24h-.466V25.55h-1.913v1.443h-.458v-3.24h.458v1.366zm5.496-.084v-.028c0-.595-.373-.863-.946-.863a2.07 2.07 0 00-.946.233l-.079.043-.172-.41.072-.036c.373-.17.724-.269 1.14-.269.379 0 .766.085 1.045.36.251.248.344.58.344.927v2.002h-.458v-.375a1.525 1.525 0 01-1.11.446c-.667 0-1.29-.34-1.29-1.061 0-.785.752-1.082 1.447-1.082.336 0 .63.035.953.113zm2.041.7c-.465-.127-.838-.474-.838-.983 0-.686.595-.997 1.225-.997h1.483v3.24h-.465v-1.19h-.91l-.924 1.19h-.58l1.01-1.26zm6.979-1.556h-1.834v2.815h-.466v-3.24h2.758v3.24h-.458v-2.815zm3.733 0h-1.376c0 .644-.007 1.485-.18 2.108-.078.29-.207.601-.522.707a.904.904 0 01-.337.05c-.108 0-.265-.021-.365-.05l-.072-.021.086-.431.086.02c.05.015.157.043.215.043.05 0 .107-.007.157-.021.208-.057.287-.325.337-.51.144-.608.144-1.45.144-2.079v-.24h2.285v3.24h-.459v-2.816zm3.582.856v-.028c0-.595-.373-.863-.946-.863a2.07 2.07 0 00-.946.233l-.079.043-.172-.41.072-.036c.373-.17.724-.269 1.14-.269.38 0 .766.085 1.045.36.251.248.337.58.337.927v2.002h-.451v-.375a1.54 1.54 0 01-1.118.446c-.66 0-1.282-.34-1.282-1.061 0-.785.752-1.082 1.447-1.082.337 0 .63.035.953.113zm2.156-.856h-1.175v-.424h2.802v.424h-1.168v2.815h-.459v-2.815zm4.12 2.624c-.222.163-.444.262-.745.262-.96 0-1.354-.863-1.354-1.705 0-.834.394-1.683 1.354-1.683.308 0 .523.099.745.269V22.6h.458v1.344c.215-.17.437-.27.745-.27.96 0 1.355.857 1.355 1.698 0 .835-.402 1.691-1.355 1.691-.33 0-.522-.085-.745-.255v1.153h-.458v-1.16zm4.8.262c-.96 0-1.684-.757-1.684-1.69 0-.934.738-1.698 1.691-1.698.96 0 1.684.764 1.684 1.697 0 .927-.738 1.691-1.69 1.691zm2.916-2.787c.301-.368.688-.601 1.204-.601.945 0 1.597.792 1.597 1.697 0 .899-.659 1.691-1.597 1.691-.502 0-.903-.212-1.204-.573v1.471h-.466v-4.208h.466v.523zm5.201 1.188l1.233-1.711h.387v3.24h-.459v-2.406l-1.175 1.599-1.16-1.592v2.398h-.452v-3.24h.394l1.233 1.712zm4.743-.431v-.028c0-.595-.372-.863-.945-.863a2.07 2.07 0 00-.946.233l-.079.043-.172-.41.072-.036c.372-.17.723-.269 1.139-.269.38 0 .767.085 1.046.36.251.248.344.58.344.927v2.002h-.459v-.375a1.52 1.52 0 01-1.11.446c-.666 0-1.29-.34-1.29-1.061 0-.785.753-1.082 1.448-1.082.336 0 .63.035.952.113zm-59.286.438a4.097 4.097 0 00-.982-.12c-.43 0-.938.142-.938.65 0 .454.408.623.817.623.515 0 1.103-.297 1.103-.87v-.283zm4.65-.325h2.092c-.072-.559-.409-1.04-1.032-1.04-.602 0-.989.495-1.06 1.04zm14.372.325a4.19 4.19 0 00-.982-.12c-.43 0-.938.142-.938.65 0 .454.408.623.816.623.516 0 1.104-.297 1.104-.87v-.283zm3.439-.091v-1.203h-.975c-.387 0-.78.156-.78.587 0 .432.408.616.795.616h.96zm12.896.091a4.189 4.189 0 00-.982-.12c-.43 0-.938.142-.938.65 0 .454.408.623.817.623.515 0 1.103-.297 1.103-.87v-.283zm6.269.828v-1.86c-.2-.198-.423-.319-.717-.319-.716 0-.902.665-.902 1.26 0 .622.164 1.237.902 1.237.294 0 .516-.113.717-.318zm.458-1.86v1.86c.201.205.423.318.717.318.738 0 .895-.63.895-1.245 0-.594-.186-1.252-.895-1.252-.294 0-.516.12-.717.319zm4.35 2.185c.687 0 1.196-.6 1.196-1.252 0-.665-.516-1.259-1.204-1.259s-1.196.595-1.196 1.26c0 .671.508 1.251 1.203 1.251zm4.083-.007c.724 0 1.14-.558 1.14-1.245 0-.665-.445-1.252-1.14-1.252-.695 0-1.196.595-1.196 1.26 0 .657.508 1.237 1.196 1.237zm8.777-1.146a4.193 4.193 0 00-.982-.12c-.43 0-.938.142-.938.65 0 .454.408.623.816.623.516 0 1.104-.297 1.104-.87v-.283zM23.212 18.26l4.721-4.662-4.721-4.655h3.525l4.721 4.655-4.721 4.661h-3.525zm-6.212 0l4.721-4.662L17 8.943h3.525l4.721 4.655-4.721 4.661H17z" opacity=".6" fill-rule="evenodd" clip-rule="evenodd" fill="#CCCED7"/></svg>