<svg width="120" height="35" fill="none" xmlns="http://www.w3.org/2000/svg"><g opacity=".6" fill="#E0E0E0"><path d="M55.297 10.26L52.72 25.378h4.12l2.578-15.118h-4.122zm-6.031.017l-4.035 10.31-.43-1.557c-.796-1.876-3.056-4.57-5.708-6.267l3.69 12.607 4.36-.007 6.488-15.09-4.365.004z"/><path d="M43.236 11.359c-.24-.921-.933-1.196-1.795-1.229h-6.388l-.053.301c4.971 1.206 8.26 4.112 9.626 7.606l-1.39-6.678zm24.534 1.799a7.606 7.606 0 013.083.579l.372.175.558-3.277c-.816-.306-2.095-.635-3.691-.635-4.072 0-6.941 2.05-6.964 4.99-.026 2.17 2.044 3.383 3.609 4.107 1.605.741 2.144 1.213 2.136 1.875-.013 1.012-1.28 1.477-2.464 1.477-1.65 0-2.526-.228-3.88-.792l-.53-.242-.58 3.384c.964.423 2.744.787 4.59.806 4.332 0 7.147-2.027 7.176-5.167.018-1.717-1.08-3.028-3.462-4.104-1.441-.701-2.323-1.168-2.314-1.876 0-.628.748-1.3 2.36-1.3zm14.587-2.882h-3.183c-.989 0-1.724.27-2.159 1.255l-6.118 13.855h4.327s.706-1.863.866-2.271l5.276.006c.124.528.503 2.265.503 2.265h3.822l-3.334-15.11zm-5.081 9.745c.34-.868 1.642-4.226 1.642-4.226-.023.042.335-.874.548-1.443l.278 1.304.955 4.365h-3.423z"/></g></svg>