<svg xmlns="http://www.w3.org/2000/svg" viewBox="0 0 19 19"><path d="M16.6 3h-3.5v-.5c0-1-.8-1.9-1.9-1.9H7.8c-1 0-1.9.8-1.9 1.9V3H2.4c-.2 0-.5.2-.5.5s.3.5.5.5h.9v11.9c0 1.4 1.1 2.5 2.5 2.5h7.4c1.4 0 2.5-1.1 2.5-2.5V4h.9c.3 0 .5-.2.5-.5s-.2-.5-.5-.5zm-9.7-.5c0-.5.4-.9.9-.9h3.4c.5 0 .9.4.9.9V3H6.9v-.5z"/><path fill="#fff" d="M9.5 14.1c.3 0 .5-.2.5-.5V5.3c0-.3-.2-.5-.5-.5-.3.1-.5.3-.5.5v8.3c0 .3.2.5.5.5zm-3.1-.5c.3 0 .5-.2.5-.5V5.8c0-.3-.2-.5-.5-.5-.2.1-.4.3-.4.5v7.3c0 .3.2.5.4.5zm6.3 0c.3 0 .5-.2.5-.5V5.8c0-.3-.2-.5-.5-.5s-.5.2-.5.5v7.3c.1.3.3.5.5.5z"/></svg>