<svg xmlns="http://www.w3.org/2000/svg" viewBox="0 0 19 17"><path d="M9.5 2.4C8.6 1.2 7.1.5 5.5.5 2.8.5.5 2.9.5 5.6c0 2.6 1.5 5.3 4.4 7.8 1.3 1.1 2.8 2.1 4.4 2.9.1.1.3.1.4 0 1.6-.8 3-1.8 4.4-2.9 2.9-2.5 4.4-5.2 4.4-7.8 0-2.7-2.3-5.1-5-5.1h-.2c-1.5.1-2.9.8-3.8 1.9z"/><path d="M9.5 16.6c-.1 0-.2 0-.3-.1-1.6-.8-3.1-1.8-4.4-3C1.9 11 .3 8.2.3 5.6.3 2.8 2.7.3 5.5.3c1.5 0 3 .7 4 1.8.9-1 2.2-1.7 3.6-1.8h.3c2.8 0 5.2 2.5 5.2 5.3 0 2.7-1.6 5.4-4.5 7.9-1.3 1.1-2.8 2.1-4.4 3 0 .1-.1.1-.2.1zM5.5.7C2.9.7.6 3 .6 5.7c0 2.6 1.5 5.2 4.4 7.7 1.3 1.1 2.8 2.1 4.3 2.9h.3c1.5-.8 3-1.8 4.3-2.9 2.9-2.4 4.4-5.1 4.4-7.7 0-2.6-2.3-5-4.9-5h-.2c-1.4 0-2.8.7-3.7 1.8v.2l-.1-.2C8.5 1.4 7 .7 5.5.7z"/></svg>