<svg width="28" height="28" viewBox="0 0 28 28" fill="none" xmlns="http://www.w3.org/2000/svg">
<path opacity="0.5" d="M14.9327 17.42H13.1033V8.04933H14.9327V17.42ZM13.2153 20.4067C13.0038 20.1827 12.898 19.9151 12.898 19.604C12.898 19.2929 13.0038 19.0316 13.2153 18.82C13.4393 18.596 13.7069 18.484 14.018 18.484C14.3291 18.484 14.5905 18.596 14.802 18.82C15.026 19.0316 15.138 19.2929 15.138 19.604C15.138 19.9151 15.026 20.1827 14.802 20.4067C14.5905 20.6182 14.3291 20.724 14.018 20.724C13.7069 20.724 13.4393 20.6182 13.2153 20.4067Z" fill="#828990"/>
<circle opacity="0.5" cx="14" cy="14" r="13.125" stroke="#828990" stroke-width="1.75"/>
</svg>
