<svg xmlns="http://www.w3.org/2000/svg" viewBox="0 0 19 19">
<g>
	<path d="M16.6,3h-3.5V2.5c0-1-0.8-1.9-1.9-1.9H7.8c-1,0-1.9,0.8-1.9,1.9V3H2.4C2.2,3,1.9,3.2,1.9,3.5C1.9,3.8,2.2,4,2.4,4h0.9v11.9c0,1.4,1.1,2.5,2.5,2.5h7.4c1.4,0,2.5-1.1,2.5-2.5V4h0.9c0.3,0,0.5-0.2,0.5-0.5C17.1,3.2,16.9,3,16.6,3z M6.9,2.5c0-0.5,0.4-0.9,0.9-0.9h3.4c0.5,0,0.9,0.4,0.9,0.9V3H6.9V2.5z"/>
	<path fill="#fff" d="M9.5,14.1c0.3,0,0.5-0.2,0.5-0.5V5.3c0-0.3-0.2-0.5-0.5-0.5C9.2,4.9,9,5.1,9,5.3v8.3C9,13.9,9.2,14.1,9.5,14.1z"/>
	<path fill="#fff" d="M6.4,13.6c0.3,0,0.5-0.2,0.5-0.5V5.8c0-0.3-0.2-0.5-0.5-0.5C6.2,5.4,6,5.6,6,5.8v7.3C6,13.4,6.2,13.6,6.4,13.6z"/>
	<path fill="#fff" d="M12.7,13.6c0.3,0,0.5-0.2,0.5-0.5V5.8c0-0.3-0.2-0.5-0.5-0.5s-0.5,0.2-0.5,0.5v7.3C12.3,13.4,12.5,13.6,12.7,13.6z"/>
</g>
</svg>
