<svg xmlns="http://www.w3.org/2000/svg" viewBox="0 0 19 17">
	<g>
		<path d="M9.5,2.4c-0.9-1.2-2.4-1.9-4-1.9h0c-2.7,0-5,2.4-5,5.1c0,2.6,1.5,5.3,4.4,7.8l0,0c1.3,1.1,2.8,2.1,4.4,2.9h0l0,0c0.1,0.1,0.3,0.1,0.4,0l0,0l0,0c1.6-0.8,3-1.8,4.4-2.9l0,0c2.9-2.5,4.4-5.2,4.4-7.8c0-2.7-2.3-5.1-5-5.1h-0.2v0C11.8,0.6,10.4,1.3,9.5,2.4z"/>
		<path d="M9.5,16.6c-0.1,0-0.2,0-0.3-0.1c-1.6-0.8-3.1-1.8-4.4-3c-2.9-2.5-4.5-5.3-4.5-7.9c0-2.8,2.4-5.3,5.2-5.3c1.5,0,3,0.7,4,1.8c0.9-1,2.2-1.7,3.6-1.8v0l0.3,0c2.8,0,5.2,2.5,5.2,5.3c0,2.7-1.6,5.4-4.5,7.9c-1.3,1.1-2.8,2.1-4.4,3C9.7,16.6,9.6,16.6,9.5,16.6z M5.5,0.7c-2.6,0-4.9,2.3-4.9,5c0,2.6,1.5,5.2,4.4,7.7c1.3,1.1,2.8,2.1,4.3,2.9c0.1,0,0.2,0,0.3,0c1.5-0.8,3-1.8,4.3-2.9c2.9-2.4,4.4-5.1,4.4-7.7c0-2.6-2.3-5-4.9-5l-0.2,0c-1.4,0-2.8,0.7-3.7,1.8L9.5,2.7L9.4,2.5C8.5,1.4,7,0.7,5.5,0.7z"/>
	</g>
</svg>
