<svg version="1.1" id="Слой_1" xmlns="http://www.w3.org/2000/svg" xmlns:xlink="http://www.w3.org/1999/xlink" x="0px" y="0px"
	 viewBox="0 0 32 32" style="enable-background:new 0 0 32 32;" xml:space="preserve">
<g>
	<path d="M26.5,15.1v-3.5h-1.7v3.5h-3.5v1.7h3.5v3.5h1.7v-3.5H30v-1.7H26.5z"/>
	<path d="M10.7,14.3v3.5h5c-0.7,2-2.7,3.5-5,3.5c-2.9,0-5.2-2.4-5.2-5.2s2.4-5.2,5.2-5.2c1.3,0,2.5,0.4,3.4,1.3l2.3-2.6c-1.6-1.4-3.6-2.1-5.7-2.1C5.9,7.3,2,11.2,2,16c0,4.8,3.9,8.7,8.7,8.7c4.8,0,8.7-3.9,8.7-8.7v-1.7H10.7z"/>
</g>
</svg>
