<svg xmlns="http://www.w3.org/2000/svg" viewBox="0 0 32 32">
	<path d="M12,16c0-2.2,1.8-3.9,3.9-3.9c2.2,0,3.9,1.8,3.9,3.9c0,2.2-1.8,3.9-3.9,3.9C13.8,19.9,12,18.1,12,16z M16,22c-3.4,0-6.1-2.7-6.1-6.1c0-3.3,2.7-6.1,6.1-6.1c3.4,0,6.1,2.7,6.1,6.1C22.1,19.3,19.3,22,16,22z M25.6,6.4c-0.5-0.5-0.9-0.8-1.6-1c-0.5-0.2-1.2-0.4-2.5-0.5c-1.4-0.1-1.9-0.1-5.5-0.1c-3.6,0-4.1,0-5.5,0.1C9.2,5,8.5,5.2,8,5.4c-0.6,0.2-1.1,0.5-1.6,1C5.9,6.9,5.6,7.3,5.4,8C5.2,8.5,5,9.2,4.9,10.5c-0.1,1.4-0.1,1.9-0.1,5.5c0,3.6,0,4.1,0.1,5.5c0.1,1.3,0.3,2,0.5,2.5c0.2,0.6,0.5,1.1,1,1.6c0.5,0.5,0.9,0.8,1.6,1c0.5,0.2,1.2,0.4,2.5,0.5c1.4,0.1,1.9,0.1,5.5,0.1c3.6,0,4.1,0,5.5-0.1c1.3-0.1,2-0.3,2.5-0.5c0.6-0.2,1.1-0.5,1.6-1c0.5-0.5,0.8-0.9,1-1.6c0.2-0.5,0.4-1.2,0.5-2.5c0.1-1.4,0.1-1.9,0.1-5.5c0-3.6,0-4.1-0.1-5.5c-0.1-1.3-0.3-2-0.5-2.5C26.4,7.3,26.1,6.9,25.6,6.4z M20.8,9.7c0-0.8,0.7-1.5,1.5-1.5c0.8,0,1.5,0.7,1.5,1.5c0,0.8-0.7,1.5-1.5,1.5C21.4,11.2,20.8,10.5,20.8,9.7z"/>
</svg>
