<svg version="1.1" id="Слой_1" xmlns="http://www.w3.org/2000/svg" xmlns:xlink="http://www.w3.org/1999/xlink" x="0px" y="0px"
	 viewBox="0 0 32 32" style="enable-background:new 0 0 32 32;" xml:space="preserve">
<g>
	<path d="M8.7,16.9c-0.6,1.2,0.1,1.8,1.7,2.8c1.3,0.8,3.2,1.1,4.4,1.3c-0.5,0.5,1.8-1.7-4.7,4.5c-1.4,1.3,0.8,3.4,2.2,2.1L16,24c1.4,1.4,2.8,2.7,3.7,3.6c1.4,1.3,3.6-0.8,2.2-2.1c-0.1-0.1-5-4.8-4.7-4.5c1.2-0.1,3-0.4,4.4-1.3l0,0c1.6-1,2.3-1.6,1.7-2.8c-0.4-0.7-1.3-1.3-2.7-0.3c0,0-1.8,1.4-4.6,1.4c-2.9,0-4.6-1.4-4.6-1.4C10.1,15.6,9.1,16.2,8.7,16.9z"/>
	<path d="M16,16.1c3.5,0,6.3-2.7,6.3-6.1C22.3,6.7,19.5,4,16,4c-3.5,0-6.3,2.7-6.3,6.1C9.7,13.4,12.5,16.1,16,16.1zM16,7.1c1.7,0,3.1,1.3,3.1,3c0,1.6-1.4,3-3.1,3c-1.7,0-3.1-1.3-3.1-3C12.9,8.4,14.3,7.1,16,7.1z"/>
</g>
</svg>
