<svg xmlns="http://www.w3.org/2000/svg" viewBox="0 0 32 32">
	<path d="M15.7,23.6h1.7c0,0,0.5-0.1,0.8-0.3c0.2-0.2,0.2-0.7,0.2-0.7s0-2.2,1.1-2.5c1.1-0.3,2.4,2.1,3.9,3c1.1,0.7,1.9,0.5,1.9,0.5l3.9-0.1c0,0,2-0.1,1.1-1.6c-0.1-0.1-0.6-1.1-2.9-3.1c-2.4-2.1-2.1-1.8,0.8-5.4c1.8-2.2,2.5-3.6,2.3-4.1C30.3,8.8,29,9,29,9l-4.4,0c0,0-0.3,0-0.6,0.1c-0.2,0.1-0.4,0.4-0.4,0.4S23,11.3,22,12.7c-2,3.1-2.7,3.2-3,3c-0.7-0.4-0.6-1.8-0.6-2.7c0-3,0.5-4.2-0.9-4.5c-0.5-0.1-0.8-0.2-2-0.2c-1.6,0-2.9,0-3.6,0.3c-0.5,0.2-0.9,0.7-0.6,0.8c0.3,0,0.9,0.2,1.3,0.6c0.4,0.6,0.4,1.8,0.4,1.8s0.3,3.5-0.6,3.9c-0.6,0.3-1.4-0.3-3.1-3.1c-0.9-1.4-1.6-3-1.6-3S7.5,9.4,7.2,9.2C6.9,9,6.5,9,6.5,9L2.4,9c0,0-0.6,0-0.9,0.3c-0.2,0.2,0,0.7,0,0.7S4.8,17,8.5,20.6C11.8,23.9,15.7,23.6,15.7,23.6z"/>
</svg>
