<svg xmlns="http://www.w3.org/2000/svg" viewBox="0 0 18 22"><path d="M17.4 5.8c0-.4-.3-.6-.7-.6h-2.4C14.2 2.9 12.2.1 9 .1 5.8.1 3.8 2.9 3.7 5.2H1.3c-.4 0-.7.3-.7.6l-.3 13c0 1.7 1.5 3 3.3 3h10.8c1.8 0 3.3-1.3 3.3-3v-.1l-.3-12.9zM9 1.5c1.1 0 2.1.5 2.8 1.3.7.7 1.1 1.6 1.1 2.4H5.1c0-.8.3-1.7.9-2.4.7-.8 1.7-1.3 3-1.3zm-5.4 19c-1.1 0-1.9-.7-2-1.6l.3-12.3h14.2l.3 12.4c0 .8-.9 1.6-2 1.6H3.6z"/><path d="M14.4 22H3.6C1.7 22 .2 20.6.2 18.9l.3-13c0-.4.4-.7.8-.7h2.4C3.8 2.6 5.8 0 9 0s5.2 2.6 5.4 5.1h2.4c.4 0 .8.3.8.7l.3 13v.1c-.1 1.7-1.6 3.1-3.5 3.1zM1.3 5.3c-.3 0-.6.2-.6.6l-.3 13c0 1.6 1.5 2.9 3.2 2.9h10.8c1.8 0 3.2-1.3 3.2-2.9l-.3-13c0-.3-.3-.5-.6-.5h-2.5v-.1c-.1-2.4-2.1-5-5.2-5s-5.1 2.6-5.2 5v.1H1.3zm13.1 15.3H3.6c-1.1 0-2-.7-2.1-1.7l.3-12.4h14.4v.1l.3 12.4c-.1.9-1 1.6-2.1 1.6zM2 6.7L1.7 19c0 .8.8 1.5 1.9 1.5h10.8c1 0 1.8-.7 1.9-1.5L16 6.7H2zm11-1.4H5v-.1c0-.9.4-1.8 1-2.5.5-.6 1.4-1.3 3-1.3 1 0 2 .5 2.8 1.3.7.7 1.1 1.7 1.2 2.5v.1zm-7.8-.2h7.6c-.1-.8-.5-1.6-1.1-2.3C10.9 2 10 1.6 9 1.6c-1.5 0-2.4.7-2.9 1.3-.5.6-.8 1.4-.9 2.2z"/></svg>