<svg xmlns="http://www.w3.org/2000/svg" viewBox="0 0 22 20"><path d="M15.6.5c-1.8 0-3.5.8-4.6 2.2C9.9 1.3 8.2.5 6.4.5 3.3.5.5 3.4.5 6.7c0 3.2 1.8 6.4 5.1 9.3 1.5 1.4 3.2 2.5 5.1 3.5.2.1.4.1.5 0 1.8-1 3.5-2.2 5.1-3.5 3.3-2.9 5.1-6.2 5.1-9.3.1-3.3-2.7-6.2-5.8-6.2zM10.5 4c.1.2.3.3.5.3s.4-.1.5-.3c.8-1.5 2.4-2.4 4.1-2.4 2.5 0 4.7 2.3 4.7 5 0 3.1-2 5.9-4.2 8-2.1 2-4.3 3.3-5.1 3.7-.8-.4-3-1.7-5.1-3.7-2.2-2.1-4.2-4.8-4.2-8 0-2.7 2.2-5 4.7-5 1.7.1 3.3 1 4.1 2.4z"/><path d="M11 19.8c-.1 0-.3 0-.4-.1-1.8-1-3.6-2.2-5.1-3.6C2.1 13.1.3 9.8.3 6.6.3 3.2 3.2.2 6.4.2 8.2.2 9.8 1 11 2.3 12.2 1 13.8.2 15.6.2c3.3 0 6.1 3 6.1 6.4 0 3.2-1.8 6.5-5.2 9.5-1.6 1.4-3.3 2.6-5.1 3.5-.1.1-.3.2-.4.2zM6.4.7C3.4.7.8 3.5.8 6.6c0 3.1 1.7 6.2 5.1 9.1 1.5 1.3 3.2 2.5 5 3.5h.3c1.8-1 3.5-2.1 5-3.5 3.3-2.9 5.1-6.1 5.1-9.1 0-3.1-2.6-5.9-5.6-5.9-1.7 0-3.3.8-4.4 2.1l-.3.3-.2-.2C9.7 1.5 8.1.7 6.4.7zM11 18.6l-.1-.1c-.8-.5-3-1.8-5.1-3.7-2.9-2.7-4.3-5.4-4.3-8.1 0-2.8 2.3-5.2 4.9-5.2 1.8 0 3.4 1 4.3 2.5.1.2.5.2.6 0 .9-1.5 2.5-2.5 4.3-2.5 2.6 0 4.9 2.4 4.9 5.2 0 2.7-1.4 5.5-4.3 8.1-2.1 1.9-4.3 3.3-5.1 3.7l-.1.1zM6.4 1.9C4 1.9 2 4.1 2 6.6c0 2.6 1.4 5.2 4.1 7.8 1.9 1.8 4 3.1 4.9 3.6.9-.5 3-1.8 4.9-3.6 2.7-2.6 4.1-5.2 4.1-7.8 0-2.5-2.1-4.7-4.4-4.7-1.6 0-3.1.9-3.9 2.2-.4.5-1.1.5-1.4 0C9.5 2.8 8 1.9 6.4 1.9z"/></svg>