<svg xmlns="http://www.w3.org/2000/svg" viewBox="0 0 20 20"><path d="M14.8 13.8c1.2-1.4 1.9-3.2 1.9-5.1 0-2.1-.8-4.1-2.3-5.6C12.9 1.6 10.9.8 8.8.8c-2.1 0-4.1.8-5.6 2.3S.8 6.6.8 8.7c0 2.1.8 4.1 2.3 5.6 1.5 1.5 3.5 2.3 5.6 2.3 1.9 0 3.7-.7 5.1-1.9l4.2 4.1c.2.2.4.3.5.3.2 0 .4 0 .5-.2.3-.3.2-.7-.1-1.1l-4.1-4zm-1.5-.4c-1.2 1.2-2.9 1.9-4.6 1.9-1.7 0-3.4-.7-4.6-1.9-1.2-1.2-1.9-2.9-1.9-4.6C2.1 7 2.8 5.3 4 4.1c1.3-1.3 3-2 4.7-2 1.7 0 3.4.7 4.6 1.9 1.2 1.2 1.9 2.9 1.9 4.6.1 1.9-.6 3.5-1.9 4.8z"/><path d="M18.7 19.5h-.2c-.2 0-.5-.2-.7-.4l-4-4c-1.4 1.1-3.2 1.8-5.1 1.8-2.2 0-4.2-.9-5.8-2.4C1.4 13 .5 10.9.5 8.7c0-2.2.9-4.2 2.4-5.8C4.4 1.4 6.5.5 8.7.5s4.2.9 5.8 2.4c1.5 1.5 2.4 3.6 2.4 5.8 0 1.8-.6 3.6-1.8 5.1l4.1 4c.4.5.4 1.1.1 1.4-.2.2-.4.3-.6.3zm-4.9-5.1l4.4 4.3c.1.1.3.2.4.2.1 0 .2 0 .3-.1.2-.2.1-.5-.1-.8l-4.4-4.3.2-.2c1.2-1.4 1.8-3.1 1.8-4.9 0-2.1-.8-4-2.3-5.4C12.7 1.8 10.7 1 8.7 1s-4 .8-5.4 2.3C1.8 4.7 1 6.7 1 8.7c0 2.1.8 4 2.3 5.4 1.5 1.5 3.4 2.3 5.4 2.3 1.8 0 3.6-.6 4.9-1.8l.2-.2zm-5.1 1.1c-1.8 0-3.5-.7-4.8-2-1.3-1.3-2-3-2-4.8 0-1.8.7-3.5 2-4.8 1.3-1.3 3-2 4.8-2s3.5.7 4.8 2c1.3 1.3 2 3 2 4.8 0 1.8-.7 3.5-2 4.8-1.3 1.3-3 2-4.8 2zm0-13.1c-1.7 0-3.3.7-4.5 1.8C3 5.4 2.4 7 2.4 8.7c0 1.7.7 3.3 1.9 4.5C5.4 14.4 7 15 8.7 15c1.7 0 3.3-.7 4.5-1.9C14.4 12 15 10.4 15 8.7c0-1.7-.7-3.3-1.9-4.5C12 3 10.4 2.4 8.7 2.4z"/></svg>