<svg xmlns="http://www.w3.org/2000/svg" viewBox="0 0 32 32"><path d="M12 16c0-2.2 1.8-3.9 3.9-3.9 2.2 0 3.9 1.8 3.9 3.9 0 2.2-1.8 3.9-3.9 3.9-2.1 0-3.9-1.8-3.9-3.9zm4 6c-3.4 0-6.1-2.7-6.1-6.1 0-3.3 2.7-6.1 6.1-6.1 3.4 0 6.1 2.7 6.1 6.1 0 3.4-2.8 6.1-6.1 6.1zm9.6-15.6c-.5-.5-.9-.8-1.6-1-.5-.2-1.2-.4-2.5-.5-1.4-.1-1.9-.1-5.5-.1s-4.1 0-5.5.1c-1.3.1-2 .3-2.5.5-.6.2-1.1.5-1.6 1s-.8.9-1 1.6c-.2.5-.4 1.2-.5 2.5-.1 1.4-.1 1.9-.1 5.5s0 4.1.1 5.5c.1 1.3.3 2 .5 2.5.2.6.5 1.1 1 1.6s.9.8 1.6 1c.5.2 1.2.4 2.5.5 1.4.1 1.9.1 5.5.1s4.1 0 5.5-.1c1.3-.1 2-.3 2.5-.5.6-.2 1.1-.5 1.6-1s.8-.9 1-1.6c.2-.5.4-1.2.5-2.5.1-1.4.1-1.9.1-5.5s0-4.1-.1-5.5c-.1-1.3-.3-2-.5-2.5-.2-.7-.5-1.1-1-1.6zm-4.8 3.3c0-.8.7-1.5 1.5-1.5s1.5.7 1.5 1.5-.7 1.5-1.5 1.5c-.9 0-1.5-.7-1.5-1.5z"/></svg>