<svg width="66" height="75" viewBox="0 0 66 75" fill="none" xmlns="http://www.w3.org/2000/svg">
<path d="M6.07145 12.1434C9.42462 12.1434 12.1429 9.42509 12.1429 6.07193C12.1429 2.71876 9.42462 0.000488281 6.07145 0.000488281C2.71828 0.000488281 0 2.71876 0 6.07193C0 9.42509 2.71828 12.1434 6.07145 12.1434Z" fill="#2F3344"/>
<path d="M6.07145 30.7278C9.42462 30.7278 12.1429 28.0096 12.1429 24.6564C12.1429 21.3032 9.42462 18.585 6.07145 18.585C2.71828 18.585 0 21.3032 0 24.6564C0 28.0096 2.71828 30.7278 6.07145 30.7278Z" fill="#2F3344"/>
<path d="M23.3703 12.1429C26.7234 12.1429 29.4417 9.4246 29.4417 6.07144C29.4417 2.71827 26.7234 0 23.3703 0C20.0171 0 17.2988 2.71827 17.2988 6.07144C17.2988 9.4246 20.0171 12.1429 23.3703 12.1429Z" fill="#2F3344"/>
<path d="M23.3703 30.7278C26.7234 30.7278 29.4417 28.0096 29.4417 24.6564C29.4417 21.3032 26.7234 18.585 23.3703 18.585C20.0171 18.585 17.2988 21.3032 17.2988 24.6564C17.2988 28.0096 20.0171 30.7278 23.3703 30.7278Z" fill="#2F3344"/>
<path d="M40.6711 12.1429C44.0242 12.1429 46.7425 9.4246 46.7425 6.07144C46.7425 2.71827 44.0242 0 40.6711 0C37.3179 0 34.5996 2.71827 34.5996 6.07144C34.5996 9.4246 37.3179 12.1429 40.6711 12.1429Z" fill="#2F3344"/>
<path d="M40.6711 30.7278C44.0242 30.7278 46.7425 28.0096 46.7425 24.6564C46.7425 21.3032 44.0242 18.585 40.6711 18.585C37.3179 18.585 34.5996 21.3032 34.5996 24.6564C34.5996 28.0096 37.3179 30.7278 40.6711 30.7278Z" fill="#2F3344"/>
<path d="M58.6632 12.1429C62.0164 12.1429 64.7347 9.4246 64.7347 6.07144C64.7347 2.71827 62.0164 0 58.6632 0C55.3101 0 52.5918 2.71827 52.5918 6.07144C52.5918 9.4246 55.3101 12.1429 58.6632 12.1429Z" fill="#2F3344"/>
<path d="M58.6632 30.7278C62.0164 30.7278 64.7347 28.0096 64.7347 24.6564C64.7347 21.3032 62.0164 18.585 58.6632 18.585C55.3101 18.585 52.5918 21.3032 52.5918 24.6564C52.5918 28.0096 55.3101 30.7278 58.6632 30.7278Z" fill="#2F3344"/>
<path d="M16.5903 46.5835H11.7984C11.6761 47.4117 11.3936 48.0396 10.9589 48.4744C10.5245 48.905 9.95247 49.1207 9.23565 49.1245C8.60022 49.1207 8.05819 48.9459 7.60131 48.6042C7.14781 48.2625 6.79897 47.776 6.55402 47.1409C6.30871 46.5055 6.18604 45.7478 6.18229 44.8674C6.18229 44.4701 6.21193 44.0725 6.27869 43.6715C6.34584 43.2702 6.44974 42.8876 6.59453 42.52C6.73932 42.1561 6.9325 41.829 7.17032 41.5432C7.40814 41.257 7.69397 41.0304 8.03606 40.8631C8.37778 40.7 8.77877 40.6144 9.23565 40.6107C9.92997 40.6144 10.4982 40.8076 10.9367 41.1902C11.3752 41.5728 11.6611 42.1228 11.7984 42.8396H16.5232C16.4639 41.9442 16.2373 41.116 15.851 40.3545C15.4609 39.5968 14.9447 38.9355 14.2947 38.3709C13.6446 37.8064 12.8982 37.3683 12.0549 37.0521C11.2117 36.7404 10.3017 36.5806 9.32492 36.5768C8.35902 36.5806 7.46365 36.7179 6.63917 36.9928C5.81469 37.264 5.07161 37.6504 4.41405 38.1519C3.75312 38.653 3.19233 39.2476 2.7242 39.9385C2.25982 40.6257 1.9031 41.3834 1.6544 42.2154C1.40533 43.0474 1.28305 43.9315 1.2793 44.8674C1.28305 45.8108 1.40196 46.7024 1.6394 47.5419C1.88097 48.3814 2.22644 49.1466 2.67957 49.8413C3.13644 50.5322 3.68634 51.1339 4.33603 51.6388C4.98646 52.1407 5.72167 52.5304 6.54277 52.8054C7.3635 53.0841 8.26225 53.2213 9.23565 53.2251C10.2049 53.2251 11.1187 53.0841 11.9694 52.8054C12.8239 52.5229 13.5854 52.1073 14.25 51.5499C14.9151 50.9962 15.4538 50.3019 15.8622 49.4733C16.2707 48.6451 16.5123 47.6833 16.5903 46.5835ZM26.2853 36.5547C25.0482 36.5581 23.9337 36.755 22.9348 37.1489C21.9318 37.539 21.0773 38.1035 20.3605 38.8316C19.6437 39.563 19.0938 40.44 18.7112 41.4614C18.3248 42.4828 18.1316 43.6269 18.1279 44.8899C18.1316 46.1491 18.3289 47.2857 18.7112 48.3071C19.0975 49.3285 19.6474 50.2051 20.3643 50.937C21.0773 51.6688 21.9318 52.2333 22.9236 52.6268C23.915 53.021 25.0219 53.2213 26.2407 53.2251C27.4365 53.2213 28.525 53.021 29.4981 52.6234C30.4748 52.2296 31.3143 51.665 32.0203 50.9332C32.7225 50.198 33.2645 49.3248 33.6433 48.3071C34.0222 47.2894 34.2154 46.1604 34.2191 44.912C34.2154 43.6603 34.0259 42.5237 33.6471 41.4986C33.272 40.4768 32.7333 39.5968 32.0311 38.8612C31.3331 38.1223 30.4973 37.5573 29.5277 37.1564C28.5584 36.7587 27.4774 36.5581 26.2853 36.5547ZM26.2181 40.4547C26.8682 40.4584 27.4218 40.6257 27.8783 40.9637C28.3356 41.2979 28.6845 41.781 28.926 42.4123C29.1713 43.0436 29.2936 43.8013 29.2936 44.6892C29.2902 46.1971 29.0303 47.3375 28.51 48.1139C27.9935 48.8866 27.2358 49.2767 26.2407 49.2801C25.5718 49.2767 24.9998 49.1019 24.5279 48.7527C24.0564 48.4039 23.6997 47.8986 23.451 47.2373C23.2023 46.5722 23.0793 45.7703 23.0759 44.8227C23.0793 43.9127 23.2057 43.1329 23.4547 42.4828C23.7034 41.829 24.0639 41.3313 24.532 40.9821C24.9998 40.6332 25.5606 40.4584 26.2181 40.4547ZM44.0255 36.5547C42.7884 36.5581 41.6743 36.755 40.6751 37.1489C39.672 37.539 38.8175 38.1035 38.1011 38.8316C37.3839 39.563 36.8344 40.44 36.4517 41.4614C36.0654 42.4828 35.8722 43.6269 35.8685 44.8899C35.8722 46.1491 36.0691 47.2857 36.4517 48.3071C36.8381 49.3285 37.3876 50.2051 38.1045 50.937C38.8175 51.6688 39.672 52.2333 40.6638 52.6268C41.6556 53.021 42.7625 53.2213 43.9809 53.2251C45.1771 53.2213 46.2652 53.021 47.2386 52.6234C48.2154 52.2296 49.0549 51.665 49.7608 50.9332C50.4627 50.198 51.0051 49.3248 51.3839 48.3071C51.7624 47.2894 51.9556 46.1604 51.9597 44.912C51.9556 43.6603 51.7665 42.5237 51.3873 41.4986C51.0122 40.4768 50.4735 39.5968 49.7717 38.8612C49.0736 38.1223 48.2375 37.5573 47.2683 37.1564C46.2986 36.7587 45.2179 36.5581 44.0255 36.5547ZM43.9583 40.4547C44.6088 40.4584 45.1621 40.6257 45.6189 40.9637C46.0758 41.2979 46.425 41.781 46.6666 42.4123C46.9116 43.0436 47.0342 43.8013 47.0342 44.6892C47.0305 46.1971 46.7705 47.3375 46.2506 48.1139C45.7341 48.8866 44.9764 49.2767 43.9809 49.2801C43.312 49.2767 42.7404 49.1019 42.2685 48.7527C41.7966 48.4039 41.4403 47.8986 41.1912 47.2373C40.9425 46.5722 40.8198 45.7703 40.8161 44.8227C40.8198 43.9127 40.9463 43.1329 41.195 42.4828C41.444 41.829 41.8041 41.3313 42.2722 40.9821C42.7404 40.6332 43.3012 40.4584 43.9583 40.4547ZM66.0003 48.701H58.9577V36.9778H54.0768V52.8463H66.0003V48.701Z" fill="#2F3344"/>
<path d="M15.1257 58.2589H1.66466V62.3599L5.85457 62.3375C6.17791 62.3356 6.43411 62.3356 6.61604 62.3337C6.80134 62.3322 6.95063 62.33 7.06917 62.3266C7.18808 62.3228 7.30698 62.3172 7.43339 62.3116C7.55568 62.3063 7.72297 62.3003 7.9274 62.2928C8.13108 62.2857 8.41392 62.2782 8.77402 62.2707C8.44355 62.579 8.16673 62.8371 7.94204 63.0543C7.71772 63.2715 7.51854 63.4703 7.34037 63.6522C7.16182 63.8345 6.97876 64.0269 6.79083 64.2317L1.26367 70.2495V74.1274H15.4377V69.9821H10.8468C10.6278 69.9821 10.4083 69.984 10.1893 69.9892C9.97023 69.9948 9.73204 70.0023 9.47247 70.0117C9.21627 70.0207 8.92256 70.0357 8.58834 70.0488C8.25412 70.0616 7.86401 70.0785 7.41464 70.0931C7.7301 69.7777 8.00431 69.5016 8.24287 69.2611C8.47956 69.0229 8.69637 68.808 8.8858 68.6148C9.07485 68.422 9.25827 68.2334 9.42782 68.0541C9.59962 67.8733 9.77405 67.6835 9.95522 67.4858L15.1257 61.8472V58.2589ZM24.9767 57.8354C23.7396 57.8354 22.6263 58.0384 21.6262 58.43C20.6243 58.822 19.7676 59.3839 19.0523 60.1123C18.3343 60.843 17.787 61.7215 17.4029 62.7422C17.0181 63.7643 16.8196 64.908 16.8196 66.171C16.8196 67.4299 17.0188 68.5672 17.4029 69.5882C17.7874 70.61 18.3399 71.4851 19.0556 72.2181C19.7698 72.9488 20.6236 73.5145 21.615 73.9079C22.6068 74.3018 23.7137 74.5059 24.932 74.5059C26.1282 74.5059 27.2157 74.2995 28.1898 73.9042C29.1655 73.5084 30.0079 72.9477 30.7116 72.2143C31.4157 71.4806 31.9562 70.6059 32.3351 69.5882C32.7136 68.5702 32.9109 67.4411 32.9109 66.1931C32.9109 64.9414 32.7162 63.8049 32.3385 62.7797C31.9622 61.7583 31.4228 60.8794 30.7229 60.1423C30.023 59.4049 29.1895 58.8366 28.2194 58.4371C27.2505 58.0384 26.1691 57.8354 24.9767 57.8354ZM24.9095 61.7358C25.56 61.7358 26.1125 61.908 26.5701 62.2448C27.0259 62.5801 27.3747 63.0625 27.6178 63.6935C27.8612 64.3251 27.9865 65.0828 27.9854 65.9703C27.9831 67.4783 27.7213 68.6182 27.2018 69.3951C26.6849 70.167 25.9275 70.5612 24.932 70.5612C24.2632 70.5612 23.6916 70.3831 23.2197 70.0338C22.7482 69.6846 22.3903 69.1797 22.1424 68.5184C21.8929 67.8537 21.7673 67.0514 21.7673 66.1039C21.7673 65.1939 21.8982 64.414 22.1461 63.764C22.3956 63.1105 22.7553 62.6124 23.2234 62.2632C23.6912 61.9139 24.2523 61.7358 24.9095 61.7358ZM49.3585 58.2589H44.6783L44.7004 63.5412C44.703 64.1537 44.7117 64.7666 44.7338 65.3762C44.7559 65.9887 44.7897 66.5941 44.8343 67.1958C44.6115 66.6834 44.3632 66.1778 44.095 65.677C43.8283 65.1789 43.5515 64.6916 43.2739 64.2096L39.8421 58.2589H35.028V74.1274H39.7306L39.7082 68.6223C39.7063 68.0207 39.6992 67.419 39.6785 66.8136C39.6583 66.2119 39.6151 65.6027 39.5521 64.9898C39.7415 65.4021 39.9317 65.803 40.1279 66.1969C40.3256 66.5938 40.5293 66.9865 40.7558 67.3744L44.7004 74.1274H49.3585V58.2589ZM65.1155 58.2589H51.9662V74.1274H65.3383V70.0931H56.7578V67.7753H64.3353V64.0982H56.7578V62.1146H65.1155V58.2589Z" fill="#2F3344"/>
</svg>
